<svg width="1920" height="1080" viewBox="0 0 1920 1080" fill="none" xmlns="http://www.w3.org/2000/svg">
<path d="M47.4434 -67.8021C125.151 -114.68 206.174 -163.299 298.157 -173.766C339.613 -178.482 382.409 -175.293 421.595 -160.317C467.152 -142.908 504.732 -110.247 534.791 -72.4487C592.66 0.318679 621.984 89.7057 667.892 169.573C708.932 240.971 766.592 299.546 839.536 338.382C910.716 376.282 991.238 393.286 1071.63 386.977C1156.74 380.3 1237.98 351.998 1320.55 332.434C1403.41 312.802 1487.4 306.333 1571.91 318.804C1656.08 331.219 1737.89 360.556 1810.44 405.049C1955.64 494.099 2059.3 644.63 2093.84 811.153C2098.05 831.445 2101.17 851.925 2103.33 872.534C2103.4 873.28 2104.56 873.133 2104.48 872.393C2087.01 705.94 2000.93 548.425 1869.39 444.692C1738.61 341.562 1565.36 294.267 1400.3 316.062C1314.44 327.399 1232.58 357.276 1147.97 374.592C1061.36 392.32 974.35 391.791 890.844 360.324C809.41 329.639 738.247 274.415 689.531 202.217C636.393 123.469 608.225 30.9182 554.583 -47.5357C529.154 -84.7221 498.145 -119.067 459.507 -142.83C425.17 -163.949 386.048 -174.896 345.889 -176.682C260.627 -180.464 180.589 -145.879 107.84 -104.795C87.2517 -93.167 67.0053 -80.9581 46.759 -68.7493C46.1084 -68.344 46.807 -67.4151 47.4434 -67.8021Z" fill="url(#paint0_linear_234_5272)" fill-opacity="0.38"/>
<path d="M41.3424 -58.6873C115.797 -102.546 193.246 -147.346 280.21 -159.574C319.461 -165.088 360.025 -163.958 398.247 -152.879C442.296 -140.116 480.481 -113.623 511.703 -80.4566C573.716 -14.5898 606.397 70.7891 647.667 149.764C684.864 220.939 732.334 283.529 799.256 329.104C862.129 371.929 936.262 398.48 1012.27 403.541C1095.4 409.074 1176.74 387.185 1256.16 365.46C1341.48 342.134 1426.16 322.02 1515.24 324.593C1597.28 326.962 1679.07 345.276 1753.7 379.582C1922.75 457.3 2047.62 616.228 2090.52 796.456C2095.43 817.102 2099.21 837.976 2101.98 859.012C2102.07 859.755 2103.22 859.614 2103.13 858.87C2079.8 681.236 1977.74 516.043 1826.96 418.495C1683.55 325.727 1507.67 303.783 1342.88 341.764C1257.34 361.477 1173.84 391.909 1086.08 400.788C1001.75 409.317 917.299 393.204 842.251 353.628C765.74 313.283 706.399 251.743 663.784 176.954C619.548 99.3356 589.429 13.5318 533.415 -57.059C506.736 -90.6836 474.424 -120.506 435.678 -139.617C401.729 -156.367 364 -163.829 326.273 -163.961C243.65 -164.256 166.512 -130.667 95.5398 -91.2789C77.0711 -81.031 58.8446 -70.3386 40.6485 -59.6224C40.0061 -59.2402 40.7095 -58.3173 41.3424 -58.6873Z" fill="url(#paint1_linear_234_5272)" fill-opacity="0.38"/>
<path d="M35.2472 -49.5779C109.774 -92.4472 187.581 -135.681 274.16 -147.001C313.582 -152.156 354.251 -150.747 392.568 -139.574C434.168 -127.437 470.801 -103.384 501.298 -72.8971C566.081 -8.13711 600.682 77.8279 642.514 157.605C680.235 229.554 727.144 293.591 794.241 340.679C855.786 383.87 928.44 411.535 1003.38 418.63C1086.39 426.483 1168.1 406.418 1247.48 384.406C1331.42 361.133 1414.61 338.047 1502.32 336.383C1585.35 334.807 1669.13 349.122 1745.81 381.411C1913.63 452.088 2039.41 606.395 2086.81 780.775C2092.6 802.079 2097.17 823.677 2100.64 845.482C2100.76 846.223 2101.91 846.082 2101.79 845.341C2074.12 671.102 1970.35 510.641 1819.49 418.006C1748.74 374.56 1668.62 348.468 1586.27 339.129C1501.34 329.499 1416.95 338.658 1334.37 359.536C1248.85 381.155 1164.56 411.287 1076.01 417.952C992.27 424.252 908.642 405.479 835.168 364.893C759.778 323.253 702.015 261.139 659.674 186.691C615.303 108.692 583.835 22.8663 526.232 -47.0605C499.42 -79.6099 467.27 -108.294 429.101 -126.798C394.815 -143.418 356.7 -150.838 318.729 -151.023C237.209 -151.409 160.64 -119.606 89.9988 -81.6088C71.3391 -71.5691 52.9337 -61.0754 34.5703 -50.5095C33.9096 -50.1416 34.6082 -49.2126 35.2472 -49.5779Z" fill="url(#paint2_linear_234_5272)" fill-opacity="0.38"/>
<path d="M29.1609 -40.4641C103.304 -82.1006 180.808 -123.449 266.397 -134.246C305.977 -139.238 346.744 -137.752 385.233 -126.75C426.917 -114.832 463.938 -91.3014 494.82 -61.1322C560.181 2.71314 596.145 87.6614 638.142 167.115C675.943 238.635 721.843 303.171 787.876 351.205C848.453 395.271 920.162 424.36 994.604 433.441C1076.83 443.468 1158.27 425.775 1237.16 403.9C1320.66 380.748 1403.09 354.882 1490.11 349.227C1572.25 343.889 1656.12 353.378 1733.56 381.989C1902.98 444.578 2031.83 596.444 2083.53 767.253C2089.96 788.522 2095.2 810.116 2099.3 831.959C2099.44 832.692 2100.59 832.556 2100.45 831.817C2068.23 660.256 1962.24 503.988 1810.13 416.591C1738.18 375.256 1656.99 353.266 1574.42 347.968C1490.27 342.567 1407.77 355.471 1326.72 377.45C1240.86 400.733 1155.38 430.509 1065.77 434.789C982.775 438.748 900.064 417.568 828.213 376.05C753.709 332.999 697.4 270.193 655.163 195.837C611.07 118.213 578.417 33.3762 520.206 -35.4833C492.836 -67.8595 460.15 -96.2354 421.577 -114.397C387.135 -130.618 349.012 -137.876 311.072 -138.126C230.263 -138.655 153.944 -108.227 83.3764 -71.3813C64.89 -61.7269 46.6593 -51.6075 28.4779 -41.4005C27.8171 -41.0326 28.5158 -40.1036 29.1609 -40.4641Z" fill="url(#paint3_linear_234_5272)" fill-opacity="0.38"/>
<path d="M22.928 -31.2833C96.5127 -71.6269 173.429 -110.979 257.811 -121.461C295.825 -126.184 334.852 -124.987 372.062 -115.504C414.516 -104.684 452.605 -82.3327 484.689 -52.7082C552.401 9.81161 590.309 95.0893 632.834 175.024C670.66 246.122 715.436 311.469 780.213 360.595C840.63 406.412 912.519 437.331 987.65 448.208C1068.52 459.914 1149.1 444.692 1227.05 423.341C1310.74 400.413 1392.9 372.187 1479.63 362.861C1561.59 354.048 1646.26 359.061 1725 384.567C1894.72 439.541 2025.35 588.681 2080.62 755.212C2087.51 775.968 2093.26 797.057 2097.93 818.416C2098.09 819.141 2099.24 819.006 2099.09 818.275C2062.35 650.189 1955.17 498.579 1802.6 416.479C1729.96 377.395 1648.34 359.589 1566.23 357.864C1481.23 356.079 1398.89 372.703 1317.59 396.037C1232.81 420.366 1147.61 448.807 1058.63 451.163C975.983 453.347 893.827 430.35 822.989 388.052C749.443 344.139 694.157 281.18 651.896 207.295C607.382 129.48 573.506 44.7881 514.259 -23.7015C486.757 -55.4934 454.069 -83.301 415.774 -101.177C382.293 -116.804 345.471 -124.294 308.629 -125.208C228.02 -127.201 151.182 -98.6236 80.1759 -62.9258C60.7333 -53.154 41.5801 -42.8221 22.4972 -32.3664C21.8521 -32.006 22.272 -30.9215 22.928 -31.2833Z" fill="url(#paint4_linear_234_5272)" fill-opacity="0.38"/>
<path d="M16.8337 -22.1745C90.4979 -61.6013 167.674 -99.4631 251.754 -109.042C290.489 -113.457 330.129 -111.85 367.916 -101.847C409.876 -90.7357 447.538 -68.6788 479.536 -39.5236C546.992 21.9412 585.917 105.754 628.433 184.769C666.419 255.362 710.382 321.057 774.119 370.961C833.152 417.191 903.465 449.285 977.403 462.206C1056.75 476.066 1136.34 464.088 1213.46 443.699C1296.74 421.683 1377.85 391.61 1463.24 378.252C1543.22 365.735 1626.52 365.146 1705.44 384.785C1792.22 406.386 1869.09 455.881 1933.24 517.243C1998.38 579.539 2046.38 657.24 2077.22 741.705C2084.78 762.422 2091.24 783.507 2096.61 804.896C2096.79 805.613 2097.94 805.477 2097.76 804.755C2055.6 636.834 1943.14 485.447 1784.34 411.418C1712.59 377.962 1632.86 366.343 1554.18 368.58C1468.61 371.013 1386.66 391.505 1305.1 415.952C1220.42 441.34 1134.27 468.302 1044.92 467.322C963.67 466.429 883.475 441.124 814.776 398.099C742.822 353.042 689.306 289.766 647.38 216.635C603.325 139.778 568.529 56.6661 509.466 -10.5501C481.554 -42.3192 448.539 -70.0481 409.996 -87.9599C375.928 -103.79 338.456 -111.366 301.015 -112.394C221.497 -114.576 145.223 -87.5626 74.6337 -53.2286C54.9988 -43.6758 35.6558 -33.5411 16.4103 -23.242C15.7517 -22.9019 16.1777 -21.8126 16.8337 -22.1745Z" fill="url(#paint5_linear_234_5272)" fill-opacity="0.38"/>
<path d="M10.7426 -13.0544C84.5162 -51.5902 161.893 -87.9103 245.677 -96.6593C329.358 -105.401 410.537 -83.5807 473.781 -26.86C541.76 34.0994 581.838 117.379 624.855 196.206C663.359 266.762 707.312 332.949 770.82 383.461C829.761 430.336 899.984 463.264 974.074 477.208C1053.57 492.17 1133.62 481.338 1211.13 461.021C1293.83 439.347 1374.01 408.617 1458.2 392.753C1538.19 377.68 1622.05 373.274 1702.13 390.111C1787.41 408.037 1863.29 454.862 1927.43 512.697C1994.2 572.9 2043.14 649.835 2075.69 733.283C2083.14 752.377 2089.67 771.805 2095.29 791.514C2095.49 792.234 2096.57 791.798 2096.37 791.083C2049.42 626.542 1935.44 478.447 1774.93 411.422C1702.87 381.329 1623.26 374.51 1545.95 380.065C1460.09 386.239 1378.4 409.738 1296.54 434.938C1212.08 460.944 1125.38 486.502 1036.04 483.072C955.753 479.987 876.99 453.364 809.643 409.903C738.081 363.728 685.252 299.712 643.061 226.442C598.694 149.381 562.541 66.5346 502.241 -0.0664438C474.175 -31.0611 441.111 -57.9842 402.866 -75.359C369.048 -90.7185 332.09 -98.2859 295.068 -99.5859C215.609 -102.37 138.998 -76.5233 68.0012 -43.0382C48.5409 -33.8599 29.3726 -24.0996 10.3071 -14.1314C9.65928 -13.7927 10.0792 -12.7082 10.7426 -13.0544Z" fill="url(#paint6_linear_234_5272)" fill-opacity="0.38"/>
<path d="M4.64623 -3.94542C79.0098 -41.8533 157.171 -76.9021 241.287 -84.4785C325.408 -92.061 406.621 -69.2411 470.056 -12.3618C537.904 48.4758 578.746 131.104 622.266 209.538C661.028 279.402 704.807 345.307 767.554 395.95C825.961 443.095 895.495 476.703 969.098 491.799C1048 507.987 1127.83 499.007 1205.22 479.252C1287.33 458.289 1366.5 427.043 1449.27 408.514C1528.97 390.675 1612.94 381.953 1694.09 394.799C1778.92 408.224 1854.83 451.796 1919.9 506.523C1988.24 563.991 2038.23 639.386 2072.86 721.2C2080.73 739.806 2087.75 758.748 2093.95 777.979C2094.18 778.69 2095.25 778.254 2095.03 777.549C2068.62 695.53 2027.3 616.953 1969.43 552.74C1914.74 492.068 1842.47 439.985 1765.45 411.874C1609.51 354.959 1440.93 406.146 1290.01 453.431C1206.13 479.719 1119.5 503.801 1030.71 498.705C950.781 494.12 872.763 466.517 806.05 422.598C735.239 375.989 682.878 312.014 640.498 239.314C595.875 162.769 558.929 80.7377 498.734 14.5428C470.446 -16.5569 437.244 -43.6561 398.898 -61.355C365.036 -76.9848 328.02 -84.9807 290.857 -86.7543C211.296 -90.5519 134.066 -66.0133 62.4637 -33.3748C42.8158 -24.4215 23.4653 -14.843 4.23106 -5.03605C3.55679 -4.68854 3.98149 -3.61011 4.64623 -3.94542Z" fill="url(#paint7_linear_234_5272)" fill-opacity="0.38"/>
<path d="M-1.45017 5.16403C72.2963 -31.5265 149.866 -64.8371 232.829 -71.9686C317.291 -79.2346 399.037 -56.7945 463.386 -0.468637C530.799 58.5362 572.675 139.075 615.817 216.044C656.245 288.162 700.886 356.862 765.668 409.528C823.245 456.34 891.658 490.25 964.191 506.288C1043.14 523.739 1123.24 516.397 1201.09 496.993C1280.86 477.117 1357.44 446.531 1436.95 425.793C1518.06 404.645 1603.9 391.242 1687.77 400.296C1770.78 409.256 1845.77 448.629 1911 499.311C1981.58 554.154 2033.06 628.38 2070.02 709.129C2078.31 727.248 2085.83 745.705 2092.59 764.447C2092.85 765.155 2093.92 764.719 2093.68 764.016C2064.67 683.634 2022.09 606.425 1962.77 544.408C1934.27 514.619 1901.75 488.997 1867.05 466.797C1832.89 444.939 1796.54 425.6 1757.74 413.428C1684.3 390.397 1604.45 393.441 1529.25 405.217C1444.85 418.432 1364.76 446.31 1283.63 472.001C1201.34 498.049 1115.93 520.426 1028.84 514.47C948.673 508.988 870.64 480.725 803.916 436.267C732.699 388.82 680.157 324.046 637.071 250.853C591.903 174.127 553.803 92.0497 492.501 26.2666C463.808 -4.52983 430.344 -31.2936 391.832 -48.7294C357.765 -64.1464 320.672 -72.1825 283.396 -74.0745C204.388 -78.078 127.387 -54.8248 55.8341 -23.2182C36.3635 -14.6176 17.1794 -5.39036 -1.87964 4.09171C-2.54572 4.41616 -2.11491 5.49934 -1.45017 5.16403Z" fill="url(#paint8_linear_234_5272)" fill-opacity="0.38"/>
<path d="M-7.54633 14.2728C65.7883 -21.3248 142.981 -53.034 225.065 -59.5944C309.279 -66.328 391.395 -44.3745 456.204 11.0236C523.939 68.9245 566.971 148.185 610.354 224.518C651.01 296.068 694.914 365.233 758.502 418.724C815.557 466.719 883.544 502.105 956.031 519.875C1034.15 539.032 1113.99 534.264 1191.78 515.932C1271.61 497.118 1347.87 466.413 1426.46 443.378C1506.83 419.826 1591.71 402.356 1675.9 406.004C1758.46 409.582 1833.38 443.66 1900.14 490.892C1973.52 542.8 2026.89 615.823 2066.53 695.704C2075.5 713.772 2083.72 732.203 2091.26 750.917C2091.54 751.61 2092.61 751.18 2092.34 750.486C2060.41 671.13 2016.21 594.744 1954.67 534.653C1925.42 506.088 1892.07 482.117 1856.71 461.663C1821.93 441.557 1785.22 424.022 1746.07 414.397C1671.2 395.987 1590.79 404.73 1516.18 419.82C1433.24 436.599 1354.34 466.28 1273.87 491.696C1192 517.554 1106.64 537.764 1020.21 529.592C939.884 521.995 862.288 491.893 796.124 446.025C725.956 397.374 674.627 331.789 631.52 258.875C586.434 182.596 547.167 101.611 485.261 36.9772C456.402 6.84639 422.939 -19.1012 384.694 -36.1616C350.411 -51.4529 313.169 -59.4377 275.764 -61.4793C197.401 -65.755 120.631 -43.6772 49.2354 -13.1267C29.9326 -4.86659 10.9115 4.0263 -7.97713 13.1896C-8.64187 13.5249 -8.21717 14.6034 -7.54633 14.2728Z" fill="url(#paint9_linear_234_5272)" fill-opacity="0.38"/>
<path d="M-13.6367 23.393C60.2888 -11.6154 138.222 -42.0974 220.646 -47.5082C305.286 -53.0643 387.454 -30.1079 452.442 25.4996C520.469 83.7068 564.262 162.973 608.444 239.39C649.734 310.796 694.219 379.885 757.973 433.438C814.882 481.23 882.46 516.738 954.576 534.994C1032.33 554.681 1112.07 550.98 1189.8 533.069C1268.95 514.835 1344.42 484.375 1421.66 459.807C1501.14 434.529 1584.62 413.937 1668.45 412.837C1708.35 412.317 1747.62 417.565 1785.31 431.066C1822.96 444.554 1859.31 463.463 1892.8 485.204C1967.72 533.835 2022.02 605.668 2063.66 683.665C2073.05 701.257 2081.78 719.185 2089.9 737.39C2090.21 738.07 2091.28 737.645 2090.98 736.959C2056.32 659.346 2011.02 584.258 1947.99 526.381C1918.56 499.364 1885.15 477.243 1849.82 458.733C1815.13 440.563 1778.7 424.812 1740.09 417.387C1664.84 402.923 1585.01 416.068 1511.45 433.532C1429.56 452.974 1351.4 483.766 1271.33 509.171C1189.75 535.066 1104.49 554.187 1018.44 545.209C938.455 536.869 861.365 506.445 795.48 460.648C725.332 411.895 673.641 346.41 629.974 273.746C584.098 197.41 543.984 116.402 481.68 51.5745C452.614 21.3313 419.024 -4.79381 380.682 -22.1953C346.347 -37.7725 309.048 -46.1859 271.505 -48.718C193.007 -54.0029 115.644 -33.2035 43.6565 -3.47921C24.1783 4.56529 4.97497 13.2765 -14.0749 22.2941C-14.7396 22.6295 -14.3149 23.7079 -13.6367 23.393Z" fill="url(#paint10_linear_234_5272)" fill-opacity="0.38"/>
<path d="M-19.7326 32.5019C54.6273 -1.84287 133.077 -30.9984 215.646 -35.4014C299.219 -39.8559 380.568 -17.0085 445.3 37.0919C514.107 94.6021 559.12 173.426 603.88 249.695C645.424 320.485 689.499 389.646 752.257 443.708C809.255 492.807 877.152 529.654 949.879 549.204C1027.05 569.949 1106.62 568 1184.31 550.955C1263.7 533.536 1339.25 503.07 1415.94 476.855C1494.73 449.93 1576.88 426.381 1660.29 420.408C1699.36 417.607 1738.35 419.73 1776.07 430.893C1812.42 441.65 1847.94 457.849 1880.75 476.751C1957.86 521.181 2013.83 590.818 2058.02 666.825C2068.87 685.474 2079.01 704.518 2088.56 723.867C2088.89 724.537 2089.97 724.107 2089.64 723.436C2051.92 647.069 2005.18 572.715 1939.91 516.899C1910.3 491.576 1876.79 471.453 1841.48 455.118C1806.06 438.731 1769.14 424.856 1730.17 420.199C1656.69 411.414 1580.39 427.852 1509.77 446.847C1426.75 469.186 1347.29 501.945 1265.39 527.757C1183.48 553.566 1097.76 570.985 1011.66 560.198C932.131 550.23 855.826 518.701 790.66 472.336C720.242 422.231 668.744 355.316 624.387 281.965C579.158 207.177 538.508 128.49 477.123 65.1767C447.343 34.4641 412.926 7.97739 373.725 -9.54477C339.717 -24.7485 302.939 -33.2259 265.859 -36.0354C187.291 -41.9845 109.57 -22.3489 37.0846 6.60369C17.7646 14.3199 -1.26832 22.7124 -20.156 31.4344C-20.8417 31.7337 -20.4109 32.8169 -19.7326 32.5019Z" fill="url(#paint11_linear_234_5272)" fill-opacity="0.38"/>
<path d="M-25.8303 41.6109C48.1267 8.29722 126.144 -19.3492 207.878 -23.1864C291.543 -27.1171 373.241 -4.38989 438.535 49.079C508.244 106.164 554.44 184.92 599.951 261.245C642.763 333.055 687.795 403.416 751.741 458.435C809.384 508.029 878.095 545.355 951.608 565.106C1026.92 585.341 1104.64 584.34 1180.66 568.355C1259.72 551.732 1334.92 521.514 1410.64 494.078C1489.81 465.397 1571.62 438.85 1655.47 428.356C1692.01 423.787 1728.98 422.958 1765.14 430.889C1802.26 439.032 1839.12 453.616 1872.83 471.028C1951.75 511.783 2008.8 580.593 2055.02 654.879C2066.31 673.026 2076.98 691.553 2087.21 710.317C2087.56 710.968 2088.64 710.543 2088.29 709.886C2048.1 636.117 2000.9 563.451 1934.98 510.082C1904.2 485.161 1869.52 466.179 1832.8 451.518C1797.24 437.321 1760.5 425.833 1722.01 423.974C1648.03 420.397 1572.71 440.696 1502.58 462.03C1421.07 486.825 1342.58 520.303 1261.29 545.737C1180.11 571.142 1095.09 587.119 1009.96 575.672C930.212 564.942 853.881 532.754 788.65 485.945C717.77 435.087 665.911 367.339 620.752 293.529C574.903 218.58 533.117 139.9 470.746 76.9066C441.408 47.2758 407.78 21.6904 369.701 4.36691C334.607 -11.5969 296.596 -20.5462 258.228 -23.6056C180.255 -29.8263 102.828 -11.3464 30.5049 16.5936C11.3445 23.9924 -7.53227 32.0844 -26.2624 40.5168C-26.9394 40.8426 -26.5147 41.921 -25.8303 41.6109Z" fill="url(#paint12_linear_234_5272)" fill-opacity="0.38"/>
<path d="M-31.9248 50.7201C43.1545 17.7429 122.449 -8.79751 205.13 -11.2177C289.91 -13.6972 371.836 10.9764 437.357 65.6638C506.122 123.052 552.454 200.992 598.3 276.625C641.649 348.148 687.242 418.22 751.25 473.16C808.779 522.547 877.09 559.933 950.242 580.158C1026.44 601.222 1105.32 600.753 1182.42 584.608C1261.52 568.039 1336.71 537.613 1412.04 509.067C1490.5 479.331 1570.99 450.653 1653.91 436.22C1689.29 430.061 1725.35 426.978 1761.01 432.83C1797.89 438.88 1835.05 451.38 1868.86 467.204C1948.83 504.642 2006.42 573.815 2054.11 646.1C2065.13 662.792 2075.67 679.78 2085.96 696.931C2086.34 697.574 2087.27 696.875 2086.89 696.237C2042.96 622.972 1993.66 549.88 1924.05 498.613C1893.46 476.095 1859.16 459.725 1823.15 447.878C1788.72 436.542 1753.67 427.952 1717.19 428.466C1643.17 429.509 1568.83 453.234 1499.3 476.529C1417.99 503.77 1339.26 538.365 1257.31 563.747C1176.27 588.842 1091.33 603.413 1006.64 590.931C926.724 579.153 850.459 546.063 785.303 498.616C715.156 447.524 663.531 379.979 618.14 306.832C572.363 233.06 530.345 155.809 468.991 93.3748C438.985 62.8389 404.677 36.3884 365.708 18.3304C331.091 2.29693 293.587 -7.06199 255.669 -10.7227C176.97 -18.3157 98.4049 -1.1079 24.9341 26.2396C5.5996 33.4337 -13.4472 41.3535 -32.3326 49.6451C-33.04 49.947 -32.6044 51.0241 -31.9248 50.7201Z" fill="url(#paint13_linear_234_5272)" fill-opacity="0.38"/>
<path d="M-38.0177 59.8398C37.0122 27.7179 116.239 2.55904 198.492 0.875244C282.972 -0.85597 364.856 23.7842 430.62 77.6697C500.237 134.722 547.712 212.532 594.309 288.223C638.329 359.729 684.189 430.226 748.179 485.692C806.139 535.936 874.99 574.265 948.885 595.199C1025.41 616.879 1104.75 617.18 1182.41 601.231C1261.08 585.069 1335.85 554.799 1410.26 525.35C1488.57 494.364 1568.11 463.454 1650.39 444.664C1684.17 436.948 1718.89 431.367 1753.61 434.439C1788.96 437.561 1825.29 447.163 1858.17 460.282C1941.25 493.424 2000.87 562.728 2051.19 634.1C2062.63 650.326 2073.68 666.827 2084.6 683.41C2085.01 684.038 2085.94 683.339 2085.53 682.717C2038.35 611.086 1987.8 538.373 1915.83 489.491C1885.49 468.884 1851.66 454.673 1816.26 445.343C1781.45 436.177 1746.4 430.207 1710.32 433.445C1636.84 440.036 1564.52 466.327 1495.73 491.439C1416.46 520.376 1339.17 555.008 1258.54 580.119C1176.57 605.642 1090.58 619.736 1004.99 606.371C924.869 593.862 848.555 560.145 783.33 512.27C713.245 460.835 661.376 393.099 615.445 320.09C568.635 245.678 525.354 167.882 462.666 105.231C404.014 46.6171 331.091 10.0673 248.381 1.68736C170.144 -6.23264 91.7778 9.81461 18.3579 36.2293C-0.814351 43.1277 -19.7159 50.7485 -38.4472 58.7674C-39.1356 59.045 -38.7048 60.1282 -38.0177 59.8398Z" fill="url(#paint14_linear_234_5272)" fill-opacity="0.38"/>
<path d="M-44.1106 68.9489C30.5159 37.8086 109.288 14.0623 190.741 12.9233C275.284 11.7415 357.58 36.2815 423.839 89.6595C494.982 146.971 543.817 225.53 591.649 302.028C636.215 373.302 682.473 443.717 746.415 499.332C804.139 549.539 872.468 588.109 945.943 609.756C1022.03 632.168 1101.29 633.742 1178.93 618.528C1258.44 602.947 1333.96 572.441 1408.6 541.741C1485.12 510.263 1562.02 478.209 1641.56 455.02C1672.74 445.924 1705.01 437.749 1737.63 436.666C1775 435.426 1814.9 442.808 1850.23 454.7C1934.97 483.225 1996.07 552.733 2048.27 622.093C2060.15 637.864 2071.68 653.881 2083.24 669.877C2083.68 670.485 2084.62 669.791 2084.18 669.183C2034.02 599.777 1982.65 527.844 1909.04 481.407C1878.02 461.838 1843.61 449.276 1807.64 442.476C1773 435.936 1738.84 433.192 1703.88 439.012C1631.14 451.121 1560.64 479.713 1492.38 506.587C1413.43 537.663 1335.9 573.119 1254.67 598.06C1172.8 623.202 1086.88 635.832 1001.72 621.487C921.991 608.048 846.248 573.863 781.372 525.907C711.352 474.149 659.246 406.277 612.784 333.433C565.243 258.901 521.018 181.105 457.661 118.442C398.529 59.9533 325.302 23.2643 242.428 14.1875C164.221 5.61302 85.5776 20.5197 11.7995 46.1732C-7.22002 52.7882 -25.975 60.1207 -44.5509 67.8779C-45.2284 68.1542 -44.8037 69.2326 -44.1106 68.9489Z" fill="url(#paint15_linear_234_5272)" fill-opacity="0.38"/>
<path d="M-50.2088 78.0581C25.0405 47.4535 104.485 24.9206 186.296 24.8959C272.513 24.8651 355.717 51.2735 422.714 106.259C493.245 164.154 542.279 242.357 590.657 318.496C636.063 389.964 683.354 460.391 748.107 515.972C806.345 565.962 874.998 604.431 948.765 625.981C1023.93 647.934 1102.27 649.829 1179 635.097C1258.65 619.814 1334.31 589.208 1408.62 557.544C1485.7 524.702 1562.54 490.422 1641.85 463.217C1672.85 452.583 1704.86 442.35 1737.65 439.333C1773.34 436.042 1811.96 440.367 1846.34 450.33C1931.13 474.9 1993.04 544.745 2046.32 611.254C2058.29 626.197 2070.02 641.328 2081.91 656.336C2082.38 656.924 2083.31 656.23 2082.85 655.642C2030.14 589.102 1978.47 518.645 1904.25 474.473C1845.08 439.256 1769.15 428.5 1702.17 444.114C1629.52 461.053 1559.74 492.315 1491.24 521.126C1413.55 553.801 1336.69 589.527 1256.02 614.407C1174.44 639.561 1088.76 651.78 1003.94 637.483C924.572 624.104 849.109 590.315 784.206 543.036C713.075 491.215 659.706 423.162 612.153 349.878C563.567 275.011 518.496 196.79 454.595 133.515C394.65 74.156 320.486 36.5287 236.501 26.6232C158.907 17.4662 80.577 30.9776 6.93845 55.5221C-12.4949 62.0003 -31.657 69.2505 -50.624 76.9675C-51.3328 77.2586 -50.902 78.3418 -50.2088 78.0581Z" fill="url(#paint16_linear_234_5272)" fill-opacity="0.38"/>
<path d="M-56.3013 87.167C20.8972 56.5823 102.576 34.9994 186.19 36.9428C271.269 38.9213 352.925 66.3305 418.923 120.684C489.886 179.131 539.71 257.48 589.004 333.893C635.239 405.557 683.438 476.104 748.874 531.805C807.577 581.765 876.552 620.3 950.649 641.931C1026.93 664.198 1106.46 665.959 1184.27 650.653C1263.3 635.109 1338.39 604.425 1411.79 572.045C1487.86 538.483 1563.17 502.908 1640.41 472.113C1670.08 460.287 1700.53 448.347 1732.04 442.476C1765.54 436.239 1802.42 436.773 1835.72 444.051C1922.6 463.037 1986.87 533.034 2042.26 597.844C2055.05 612.812 2067.65 627.942 2080.57 642.813C2081.05 643.371 2081.99 642.688 2081.5 642.119C2026.61 578.88 1974.92 510.146 1900.74 468.142C1840.12 433.821 1766.58 429.025 1700.43 449.242C1628.69 471.159 1560.11 504.602 1491.78 535.123C1415.32 569.279 1339.13 605.277 1259.02 630.263C1177.64 655.648 1091.98 667.776 1007.26 653.709C926.44 640.288 849.66 605.833 783.617 557.712C712.969 506.229 659.365 438.867 611.55 366.42C562.13 291.54 516.404 213.2 452.339 149.483C392.308 89.7809 318.424 50.9776 234.282 39.5638C155.856 28.9317 76.2345 41.1788 1.33571 65.161C-18.2656 71.4393 -37.5917 78.522 -56.7246 86.0995C-57.4252 86.3675 -57.0005 87.4459 -56.3013 87.167Z" fill="url(#paint17_linear_234_5272)" fill-opacity="0.38"/>
<path d="M-62.3992 96.2762C14.9335 66.4251 96.6965 46.1554 180.101 48.9076C265.998 51.7508 348.158 80.0356 414.802 134.844C485.74 193.185 536.169 271.112 585.959 347.155C632.856 418.777 681.525 489.475 747.107 545.467C805.987 595.742 875.063 634.739 949.356 656.936C1025.34 679.637 1104.84 682.328 1182.63 667.537C1262.44 652.366 1338.24 621.428 1411.89 587.921C1487.73 553.412 1562.3 516.222 1638.08 481.598C1698.21 454.124 1760.77 428.034 1828.37 438.699C1916.13 452.547 1982.46 523.334 2039.33 585.833C2052.56 600.373 2065.66 615.033 2079.21 629.28C2079.72 629.814 2080.66 629.125 2080.15 628.587C2021.98 567.426 1969.09 498.569 1892.56 459.088C1830.31 426.984 1760.73 430.163 1696.65 455.126C1626.33 482.517 1558.9 517.748 1490.73 549.954C1414.97 585.74 1338.87 622.233 1258.69 647.135C1176.86 672.548 1090.72 683.897 1005.7 669.082C925.228 655.051 848.878 620.372 783.042 572.364C711.245 520.013 656.771 451.5 607.784 378.127C557.839 303.328 511.188 225.267 446.516 161.861C386.164 102.695 312.223 64.0536 228.347 51.973C150.506 40.767 71.2186 51.6442 -3.55495 74.5356C-23.5667 80.6602 -43.2952 87.6545 -62.8252 95.1869C-63.5292 95.4719 -63.0936 96.549 -62.3992 96.2762Z" fill="url(#paint18_linear_234_5272)" fill-opacity="0.38"/>
<path d="M-68.4923 105.396C9.48627 76.0889 91.9222 57.0326 175.671 60.9283C262.592 64.9748 345.344 94.6649 412.473 150.5C483.606 209.661 534.629 287.846 585.364 364.137C632.765 435.415 682.112 505.611 747.89 561.315C807.647 611.912 877.613 651.191 952.826 673.38C1029.9 696.112 1110.5 698.393 1189.22 682.865C1268.08 667.309 1342.99 636.371 1415.44 602.293C1491.13 566.699 1565.16 527.823 1639.48 489.511C1697.46 459.627 1758.6 425.449 1826.24 433.965C1913.53 444.959 1980.8 516.379 2038.7 576.194C2051.65 589.571 2064.56 602.987 2078 615.874C2078.53 616.393 2079.24 615.473 2078.71 614.959C2017.42 556.157 1963.43 487.241 1884.79 450.385C1852.99 435.484 1818.35 428.343 1783.28 432.743C1751.46 436.738 1722.05 447.459 1693.23 461.238C1549.94 529.768 1413.06 615.778 1260.58 663.355C1177.63 689.235 1090.25 700.163 1004.19 684.462C924.06 669.836 848.105 634.955 782.48 587.053C711.142 534.982 656.485 467.258 607.213 394.665C556.782 320.361 509.797 242.766 445.617 179.145C384.374 118.429 309.549 78.0151 224.063 64.6484C145.714 52.3965 65.5597 62.1446 -10.0945 84.4659C-29.957 90.324 -49.5423 97.047 -68.9265 104.33C-69.6237 104.581 -69.1942 105.653 -68.4923 105.396Z" fill="url(#paint19_linear_234_5272)" fill-opacity="0.38"/>
<path d="M-74.5853 114.505C3.38409 85.9767 85.7018 68.2034 169.091 72.8105C256.262 77.6315 339.333 107.718 406.907 163.45C478.744 222.689 530.743 300.959 582.315 377.422C630.679 449.129 680.871 519.877 747.398 576.068C807.051 626.446 876.681 665.816 951.555 688.388C1028.4 711.551 1108.91 714.72 1187.67 699.738C1267.31 684.588 1342.96 653.365 1415.66 618.226C1489.85 582.37 1562.11 542.712 1633.48 501.549C1690.63 468.584 1751.32 422.979 1820.66 428.429C1861.46 431.631 1899.64 451.391 1932.94 474.088C1969.74 499.174 2001.57 530.826 2033.41 561.748C2047.6 575.52 2061.77 589.316 2076.66 602.34C2077.22 602.828 2077.93 601.913 2077.37 601.425C2013.32 545.393 1958.51 476.844 1878.5 442.395C1846.3 428.529 1811.15 422.587 1776.54 430.168C1745.63 436.942 1718.04 451.519 1690.8 467.102C1623.19 505.763 1556.07 545.136 1486.96 581.092C1413.36 619.381 1338.19 656.229 1258.71 680.725C1176.87 705.945 1090.65 715.936 1005.91 700.393C924.931 685.536 848.255 650.131 781.928 601.719C709.972 549.195 654.622 480.911 604.487 407.977C553.129 333.263 505.019 255.359 439.818 191.55C377.975 131.022 302.585 90.678 216.927 76.8031C138.95 64.1745 59.0307 72.868 -16.5911 94.3304C-36.3043 99.9221 -55.7499 106.391 -74.993 113.43C-75.718 113.679 -75.2872 114.762 -74.5853 114.505Z" fill="url(#paint20_linear_234_5272)" fill-opacity="0.38"/>
<path d="M-80.6826 123.614C-1.54619 95.4278 82.0243 78.8297 166.294 84.9005C253.218 91.1692 335.751 122.221 403.111 177.874C543.103 293.534 607.967 473.844 746.908 590.825C807.315 641.684 877.692 681.53 953.434 704.338C1030.79 727.631 1111.9 730.88 1191.17 715.644C1270.85 700.322 1346.53 668.788 1418.87 632.75C1493.13 595.749 1565.17 554.32 1635.02 509.576C1660.26 493.413 1685.04 476.616 1709.92 459.933C1741.26 438.923 1774.64 421.781 1813.32 422.678C1854.05 423.623 1892.83 442.316 1926.54 463.899C1964.48 488.183 1997.34 519.488 2030.48 549.754C2045.11 563.119 2059.8 576.449 2075.3 588.807C2075.89 589.275 2076.6 588.36 2076.01 587.892C2009.28 534.71 1953.57 466.382 1872.18 434.351C1840.27 421.796 1805.37 416.933 1772 426.898C1741.1 436.124 1714.97 455.183 1688.56 472.979C1624.62 516.054 1558.96 556.588 1491.29 593.569C1418.24 633.484 1342.99 671.07 1263.37 696.057C1180.65 722.019 1093.35 732.138 1007.61 716.316C925.779 701.22 848.364 665.316 781.348 616.377C709.839 564.162 654.291 496.597 603.91 424.454C551.717 349.716 502.939 271.713 437.537 207.442C375.911 146.877 301.205 105.506 215.914 89.9921C136.732 75.5867 55.0917 82.9363 -22.2258 103.929C-42.1008 109.325 -61.7103 115.626 -81.1073 122.536C-81.8153 122.788 -81.3845 123.871 -80.6826 123.614Z" fill="url(#paint21_linear_234_5272)" fill-opacity="0.38"/>
<path d="M-86.7763 132.723C-7.12169 105.119 76.92 89.7531 161.367 96.8665C248.645 104.217 331.344 136.125 399.013 192.049C538.786 307.548 605.743 486.173 743.907 603.47C804.78 655.154 875.735 695.806 952.184 719.344C1030.4 743.436 1112.65 747.234 1192.98 731.867C1272.78 716.608 1348.59 684.882 1420.62 648.005C1495.14 609.857 1567.2 566.558 1635.54 518.188C1660.53 500.5 1684.87 482.003 1708.55 462.594C1736.67 439.548 1765.58 419.143 1803.12 417.06C1845.57 414.705 1886.92 433.496 1922.39 455.116C1960.96 478.628 1994.52 509.406 2028.67 538.71C2043.4 551.346 2058.24 563.873 2073.95 575.268C2074.55 575.707 2075.27 574.797 2074.67 574.353C2005.2 524.01 1948.44 455.641 1865.47 426.137C1833.66 414.821 1798.72 411.148 1766.6 423.541C1736.79 435.044 1713.4 457.659 1688.72 477.14C1627.95 525.098 1562.6 567.547 1495.5 606.036C1421.61 648.413 1344.7 687.466 1263.18 712.902C1179.99 738.856 1092.16 748.183 1006.13 731.636C924.099 715.86 846.612 679.379 779.474 630.069C707.462 577.177 651.378 508.889 600.156 436.353C547.411 361.666 497.738 283.916 431.753 219.877C369.925 159.872 295.3 118.623 210.418 102.398C131.662 87.3332 50.2186 93.3626 -27.0912 113.339C-47.3767 118.582 -67.3913 124.773 -87.1853 131.638C-87.9151 131.893 -87.4795 132.97 -86.7763 132.723Z" fill="url(#paint22_linear_234_5272)" fill-opacity="0.38"/>
<path d="M-92.8704 141.843C-13.0639 114.937 71.0355 100.805 155.293 108.714C243.468 116.991 326.861 149.883 395.214 206.479C536.542 323.497 605.873 503.447 746.828 621.106C807.912 672.092 878.727 712.27 954.949 735.582C1032.86 759.408 1114.81 763.321 1194.8 748.105C1275.79 732.701 1352.67 700.143 1425.26 661.79C1499.38 622.627 1570.86 577.7 1636.98 526.102C1660.05 508.092 1682.5 489.231 1703.32 468.642C1730.42 441.831 1755.97 416.033 1795.77 411.499C1836.88 406.82 1877.9 423.634 1913.1 443.335C1953.99 466.23 1989.45 497.399 2025.77 526.701C2040.95 538.944 2056.3 551.03 2072.6 561.751C2073.22 562.16 2073.94 561.245 2073.31 560.836C2001.71 513.734 1944.22 446.021 1860.64 418.562C1827.83 407.778 1791.54 404.987 1759.71 420.636C1730.57 434.969 1710.02 461.559 1686.49 483.072C1629.81 534.902 1565.4 578.906 1499.71 618.417C1426 662.758 1348.46 702.849 1266.19 728.767C1182.79 755.045 1094.61 764.273 1008.3 747.688C926.602 731.981 849.393 695.875 782.205 647.194C709.611 594.594 652.579 526.665 600.59 454.268C546.625 379.118 496.069 300.688 429.447 235.779C366.986 174.925 291.839 132.482 206.103 115.049C125.785 98.7151 42.4233 103.943 -36.7286 123.964C-55.8183 128.795 -74.666 134.474 -93.3229 140.763C-94.0106 141.002 -93.575 142.079 -92.8704 141.843Z" fill="url(#paint23_linear_234_5272)" fill-opacity="0.38"/>
<path d="M-98.9644 150.952C-18.122 124.442 67.0529 111.524 152.008 120.803C239.949 130.41 322.882 164.132 391.12 220.647C533.485 338.564 605.075 518.854 747.589 636.907C809.941 688.559 882.172 729.225 959.886 752.464C1037.95 775.808 1119.98 779.308 1199.91 763.697C1281.42 747.772 1358.7 714.446 1431.26 674.758C1505.29 634.271 1576.56 587.33 1640.47 532.087C1663.44 512.231 1685.46 491.206 1704.72 467.686C1728.94 438.114 1751.66 411.119 1791.85 405.385C1832.13 399.645 1873.18 415.577 1908.18 434.111C1948.99 455.721 1984.64 485.592 2021.23 513.427C2037.4 525.726 2053.78 537.811 2071.24 548.218C2071.88 548.593 2072.6 547.688 2071.96 547.303C1997.89 503.196 1939.25 435.497 1854.32 410.403C1821.57 400.726 1785.49 399.101 1754.89 416.502C1726.74 432.51 1709.86 461.485 1688.44 484.713C1636.29 541.259 1571.8 587.622 1507.16 628.665C1433.68 675.31 1355.45 716.727 1272.43 743.581C1188.74 770.656 1100.07 780.418 1013.16 764.21C930.532 748.804 852.403 712.607 784.296 663.769C710.952 611.162 652.935 543.21 600.054 470.685C545.028 395.208 493.576 316.353 426.34 250.846C363.127 189.258 287.246 145.819 200.624 127.419C120.708 110.445 37.5771 114.322 -41.5984 133.342C-61.0971 138.03 -80.3581 143.621 -99.4122 149.866C-100.111 150.106 -99.6751 151.183 -98.9644 150.952Z" fill="url(#paint24_linear_234_5272)" fill-opacity="0.38"/>
<path d="M-105.061 160.061C-24.0514 134.242 61.1773 122.525 145.944 132.599C236.105 143.313 320.64 178.944 390.183 237.461C463.87 299.463 519.518 378.845 575.594 456.272C627.891 528.488 682.429 599.321 752.114 655.769C814.862 706.6 887.151 746.614 964.81 769.319C1044.66 792.665 1128.51 795.34 1209.88 778.273C1290.16 761.434 1366.2 727.859 1437.33 687.591C1511.98 645.323 1583.81 595.66 1645.65 535.929C1667.88 514.455 1688.41 491.577 1705.35 465.662C1714.98 450.918 1724.14 435.774 1737.09 423.629C1752.19 409.454 1771.25 401.185 1791.71 398.425C1831.61 393.03 1873 409.119 1907.79 427.139C1948.75 448.339 1984.81 477.69 2022.27 504.271C2037.69 515.206 2053.39 525.809 2070.05 534.764C2070.71 535.12 2071.16 534.044 2070.5 533.689C2030.78 512.354 1995.91 482.829 1958.94 457.257C1924.87 433.683 1888.36 412.869 1848.02 402.22C1815 393.497 1778.54 393.154 1749.07 412.645C1720.84 431.327 1707.22 463.921 1686.76 489.69C1638.97 549.897 1574.77 598.596 1511.21 640.879C1438.49 689.263 1360.19 731.514 1277.03 758.905C1193.53 786.407 1104.91 796.445 1018 780.723C934.453 765.612 855.403 729.335 786.388 680.327C711.755 627.332 652.504 558.76 598.413 485.545C542.623 410.041 490.385 331.161 422.745 265.417C359.163 203.609 283.166 159.539 196.352 140.026C115.959 121.953 31.9975 124.68 -48.0566 143.102C-67.4238 147.559 -86.552 152.93 -105.489 158.961C-106.203 159.209 -105.772 160.292 -105.061 160.061Z" fill="url(#paint25_linear_234_5272)" fill-opacity="0.38"/>
<path d="M-111.154 169.17C-28.4164 143.542 58.6346 133.101 144.762 145.005C235.86 157.6 320.478 195.3 390.284 255.202C463.974 318.433 520.104 398.33 577.24 476.035C630.323 548.226 686.054 618.587 756.669 674.562C820.613 725.258 894.04 765.01 972.795 787.029C1053.49 809.588 1138.04 811.079 1219.75 792.769C1300.3 774.716 1376.45 739.947 1447.25 698.037C1520.31 654.785 1590.5 603.592 1648.53 541.267C1669.72 518.508 1688.55 494.219 1703 466.618C1711.3 450.764 1719.03 434.5 1731.18 421.145C1746.13 404.711 1766.32 394.898 1788.21 391.636C1827.8 385.743 1869.47 401.137 1904.38 418.441C1945.68 438.91 1982.28 467.505 2020.55 492.919C2036.07 503.233 2051.91 513.119 2068.71 521.236C2069.38 521.562 2069.83 520.487 2069.16 520.161C2029.18 500.865 1993.97 472.667 1957.1 448.245C1922.73 425.476 1886.25 405.226 1845.99 395.048C1811.89 386.428 1773.92 386.111 1744.32 407.735C1716.03 428.411 1705.91 463.172 1687.3 491.345C1668.9 519.182 1645.64 543.889 1621.58 566.873C1589.92 597.111 1555.62 624.579 1519.86 649.795C1448.92 699.818 1371.56 742.913 1289.44 771.549C1204.87 801.037 1114.72 812.724 1025.95 797.775C941.427 783.535 861.261 747.555 791.14 698.743C716.141 646.543 655.914 578.968 601.225 506.356C544.579 431.155 492.032 352.28 424.939 285.686C360.532 221.751 283.861 175.062 195.328 153.449C113.794 133.542 28.0783 134.78 -53.6755 152.699C-73.1971 156.976 -92.477 162.189 -111.566 168.102C-112.295 168.318 -111.86 169.395 -111.154 169.17Z" fill="url(#paint26_linear_234_5272)" fill-opacity="0.38"/>
<path d="M-117.25 178.29C-33.9745 153.23 53.5354 144.013 139.828 156.949C231.39 170.673 316.276 209.338 386.515 269.667C461.114 333.746 518.288 414.419 576.696 492.745C630.496 564.887 687.064 635.096 758.237 690.948C822.642 741.492 896.31 781.188 975.355 803.188C1056.67 825.824 1141.93 827.185 1224.17 808.428C1303.95 790.227 1379.39 755.457 1449.11 713.117C1522.41 668.618 1592.63 615.165 1648.41 549.582C1669.28 525.036 1687.22 498.849 1699.64 469.015C1706.65 452.183 1712.86 434.898 1723.92 420.183C1737.53 402.095 1757.02 390.447 1779.07 385.699C1818.92 377.116 1862.11 391.639 1897.97 408.226C1940.44 427.872 1978.17 456.17 2017.75 480.815C2033.73 490.77 2050.06 500.231 2067.36 507.702C2068.05 507.999 2068.5 506.928 2067.81 506.627C2025.57 488.38 1988.43 459.746 1949.58 435.496C1915.03 413.924 1878.28 395.02 1838.18 386.355C1803.64 378.893 1765.5 380.51 1737.29 404.286C1709.7 427.538 1703.02 464.172 1686.27 494.482C1670.24 523.49 1648.33 549.298 1625.53 573.161C1593.96 606.177 1558.94 635.885 1522.16 662.935C1452.14 714.456 1374.85 758.254 1292.72 787.233C1207.85 817.177 1117.14 828.878 1027.97 813.763C943.234 799.4 862.929 763.458 792.477 714.732C717.053 662.573 656.098 595.126 600.687 522.619C542.866 446.961 489.269 367.531 421.344 300.267C356.281 235.839 278.959 188.298 189.813 165.774C108.634 145.26 23.2477 145.184 -58.5697 162.09C-78.497 166.208 -98.1915 171.323 -117.673 177.184C-118.399 177.422 -117.964 178.499 -117.25 178.29Z" fill="url(#paint27_linear_234_5272)" fill-opacity="0.38"/>
<path d="M-123.343 187.399C-39.3695 162.854 48.7835 154.876 135.393 168.954C228.349 184.061 314.065 224.456 385.127 286.184C459.856 351.102 517.644 432.058 577.019 510.53C632.049 583.26 690.123 653.703 762.786 709.609C827.527 759.423 901.327 798.534 980.34 820.008C1062.81 842.426 1149.16 843.101 1232.23 823.217C1312.35 804.037 1387.97 768.153 1457.38 724.219C1529.95 678.281 1599.43 622.427 1651.62 553.628C1672.15 526.548 1687.82 498.097 1698.07 465.613C1703.66 447.89 1709.11 429.982 1719.96 414.641C1732.17 397.397 1749.89 385.543 1770.17 379.876C1810.64 368.575 1855.9 382.491 1893.05 398.722C1935.48 417.265 1973.44 444.348 2013.23 467.715C2030.22 477.69 2047.59 487.105 2066.01 494.186C2066.71 494.454 2067.16 493.383 2066.46 493.111C2024.06 476.825 1986.57 449.546 1947.8 426.379C1912.13 405.071 1874.41 386.291 1833.3 378.312C1797.89 371.443 1758.95 374.123 1731.29 399.872C1704.05 425.226 1700.32 463.076 1685.89 495.521C1672.41 525.865 1651.91 553.079 1630.25 578.029C1600.32 612.523 1566.34 643.475 1530.37 671.545C1460.95 725.733 1383.06 771.199 1300.21 801.425C1215.7 832.251 1125.08 844.828 1035.81 830.741C950.629 817.298 869.729 782.031 798.505 733.939C721.659 682.054 659.132 614.695 602.472 541.851C543.07 465.489 488.369 384.97 419.465 316.569C353.577 251.161 275.678 202.295 185.53 178.438C104.404 156.964 18.7719 155.555 -63.4564 171.542C-83.7954 175.495 -103.889 180.505 -123.768 186.321C-124.492 186.531 -124.056 187.608 -123.343 187.399Z" fill="url(#paint28_linear_234_5272)" fill-opacity="0.38"/>
<path d="M-129.44 196.509C-44.9175 172.53 43.6932 165.764 130.473 180.869C223.22 197.012 308.801 237.93 379.985 299.439C455.353 364.571 514.069 445.633 574.29 524.255C630.194 597.237 689.022 668.022 762.282 724.335C827.728 774.642 902.297 814.226 982.13 835.947C1066.13 858.805 1154.19 859.288 1238.64 838.34C1319.67 818.243 1396.02 781.079 1465.47 735.188C1537.64 687.495 1606.76 628.728 1655.16 556.275C1673.89 528.248 1686.82 499.025 1694.58 466.196C1699.11 447.033 1703.63 427.666 1714.36 410.862C1726.43 391.964 1744.99 378.799 1766.48 372.602C1806.26 361.138 1851.17 373.989 1888.14 389.182C1930.55 406.597 1968.73 432.584 2008.7 454.726C2026.71 464.703 2045.14 474.038 2064.67 480.662C2065.38 480.901 2065.83 479.831 2065.12 479.587C2022.56 465.158 1984.67 439.146 1945.89 417.029C1909.1 396.05 1870.5 377.473 1828.44 370.179C1793.01 364.034 1754.35 367.386 1727.15 393.409C1699.18 420.166 1697.5 458.778 1685.97 493.443C1675.1 526.137 1655.72 555.66 1634.59 582.598C1605.99 619.039 1572.57 651.672 1536.88 681.12C1468.17 737.835 1389.68 784.908 1306.12 816.135C1221.36 847.808 1130.39 860.853 1040.53 847.191C953.944 834.026 871.639 798.231 799.236 749.523C721.19 697.024 657.574 628.795 599.714 555.2C539.637 478.782 484.048 398.356 414.586 329.891C348.348 264.603 270.276 215.494 180.201 190.801C98.8707 168.508 12.8807 165.985 -69.9334 181.288C-90.1334 185.026 -110.114 189.828 -129.87 195.436C-130.591 195.629 -130.149 196.711 -129.44 196.509Z" fill="url(#paint29_linear_234_5272)" fill-opacity="0.38"/>
<path d="M-135.534 205.618C-50.3029 182.153 38.9446 176.622 126.035 192.863C220.134 210.406 306.545 253.053 378.566 315.943C453.73 381.574 512.895 462.466 573.767 540.87C630.504 613.942 690.286 684.726 764.297 741.007C830.68 791.486 906.142 831.198 986.93 852.714C1071.57 875.251 1160.2 875.183 1245.01 853.459C1326.43 832.602 1403.05 794.379 1472.13 746.894C1543.96 697.528 1612.44 635.878 1657.22 560.214C1674.64 530.77 1685.17 500.557 1690.84 466.853C1694.15 447.189 1697.54 427.338 1707.13 409.599C1718.73 388.166 1738.2 372.529 1761.55 365.52C1801.68 353.485 1847 365.407 1884.72 380.193C1927.52 396.977 1966.28 422.284 2007 443.32C2025.14 452.686 2043.71 461.314 2063.32 467.134C2064.03 467.345 2064.49 466.274 2063.77 466.059C2021.14 453.414 1982.88 428.706 1944.12 407.606C1906.2 386.96 1866.62 368.541 1823.56 361.955C1787.7 356.469 1748.86 360.631 1722.03 387.519C1693.85 415.752 1693.6 455.006 1684.95 491.439C1676.46 527.215 1657.99 559.749 1636.71 589.419C1610.51 625.93 1579.25 658.777 1545.57 688.441C1477.93 748.018 1399.07 796.99 1314.99 829.666C1229.2 863.005 1136.73 877.072 1045.24 863.615C957.781 850.756 874.559 814.864 801.313 765.978C722.534 713.399 657.992 645.123 599.222 571.397C538.841 495.645 482.962 415.905 414.013 347.449C346.683 280.592 267.576 229.651 175.926 203.442C94.1396 180.047 7.30703 176.276 -76.3864 191.02C-96.457 194.554 -116.31 199.143 -135.958 204.55C-136.684 204.738 -136.249 205.816 -135.534 205.618Z" fill="url(#paint30_linear_234_5272)" fill-opacity="0.38"/>
<path d="M-141.633 214.733C-55.3356 191.689 34.9785 187.433 122.705 205.085C216.646 223.987 302.733 267.453 374.812 330.418C452.168 397.996 513.111 481.201 576.397 561.432C634.542 635.142 696.21 705.976 772.128 761.979C839.823 811.91 916.504 850.905 998.388 871.144C1082.75 891.994 1170.74 890.368 1254.55 867.667C1337.56 845.194 1415.35 804.659 1484.68 754.166C1554.92 703.022 1621.6 638.267 1661.03 559.817C1668.17 545.617 1674.32 530.865 1678.66 515.558C1684.24 495.845 1685.83 475.559 1688.3 455.315C1690.83 434.504 1695.32 413.835 1706.81 395.967C1719.76 375.836 1740.37 361.927 1763.57 356.355C1804.02 346.64 1848.47 358.251 1886.23 372.977C1928.92 389.63 1967.95 414.226 2009.32 433.726C2026.37 441.763 2043.84 448.934 2062.13 453.626C2062.85 453.807 2063 452.658 2062.28 452.471C2018.34 441.205 1978.7 416.734 1938.71 396.143C1901.26 376.856 1862.33 359.731 1820.28 353.842C1783.99 348.763 1744.82 353.131 1717.8 380.384C1689.37 409.061 1688.85 448.501 1683.57 485.963C1671.92 568.473 1612.82 639.886 1554.14 695.225C1487.35 758.212 1407.51 809.498 1322.27 843.674C1236.97 877.878 1144.71 892.857 1053.24 880.452C965.464 868.547 881.781 833.473 807.853 785.321C728.008 733.314 662.059 665.531 602.245 591.883C539.345 514.428 481.583 432.432 410.455 362.037C342.415 294.693 262.713 242.906 170.477 215.698C88.5032 191.538 1.40143 186.653 -82.8391 200.714C-102.786 204.04 -122.519 208.437 -142.058 213.654C-142.779 213.848 -142.343 214.925 -141.633 214.733Z" fill="url(#paint31_linear_234_5272)" fill-opacity="0.38"/>
<path d="M-147.724 223.847C-60.6852 201.313 30.2263 198.329 118.278 217.1C214.767 237.669 302.545 283.811 376.066 349.307C452.423 417.333 513.424 499.836 577.027 579.334C636.017 653.055 698.723 723.668 775.419 779.493C844.496 829.767 922.739 868.912 1006.14 888.535C1091.55 908.634 1180.35 905.792 1264.63 881.629C1347.5 857.865 1425.06 816.062 1493.37 763.787C1562.28 711.057 1627.02 643.783 1662.16 563.308C1668.54 548.681 1673.84 533.515 1677.25 517.915C1681.95 496.363 1682.13 474.403 1683.88 452.508C1685.62 430.77 1689.81 408.984 1701.48 390.208C1713.91 370.195 1733.65 355.87 1756.3 349.548C1797.05 338.174 1842.67 349.002 1881.3 363.175C1923.99 378.835 1963.26 402.366 2004.75 420.771C2022.85 428.801 2041.39 435.872 2060.76 440.105C2061.5 440.263 2061.65 439.114 2060.92 438.95C2016.94 429.338 1976.91 406.166 1936.87 386.513C1897.86 367.373 1857.46 350.236 1813.9 345.255C1777.55 341.104 1738.84 346.54 1712.41 374.157C1683.27 404.587 1683.72 445.899 1680.63 485.187C1674.03 569.229 1620.42 642.84 1562.98 701.072C1497.47 767.48 1417.1 821.148 1331.02 857.021C1245.7 892.573 1153.03 908.728 1060.91 897.224C972.195 886.145 887.517 851.414 812.517 803.428C731.83 751.794 664.764 684.297 604.015 610.753C540.304 533.618 481.992 451.761 411.085 380.832C342.448 312.177 262.41 258.456 169.321 229.296C86.9989 203.508 -0.948499 196.901 -86.2059 209.912C-107.075 213.098 -127.727 217.465 -148.167 222.754C-148.881 222.952 -148.435 224.028 -147.724 223.847Z" fill="url(#paint32_linear_234_5272)" fill-opacity="0.38"/>
<path d="M-153.964 232.99C-66.2961 210.997 25.08 209.191 113.352 228.999C210.041 250.696 297.919 297.653 371.828 363.344C448.862 431.812 510.811 514.623 575.405 594.373C635.58 668.678 699.515 739.867 777.44 796.043C848.25 847.092 928.412 886.685 1013.86 905.852C1101.04 925.398 1191.48 921.02 1276.79 894.812C1360.41 869.119 1438.46 825.055 1506.06 769.79C1572.32 715.62 1633.63 646.286 1663.6 564.935C1669.18 549.761 1673.56 534.08 1675.92 518.067C1679.15 496.139 1678.24 474.026 1679.06 451.949C1680.82 404.403 1699.95 358.298 1748.9 342.758C1789.54 329.859 1835.69 339.486 1874.93 352.817C1919.17 367.845 1959.93 391.369 2003.08 409.085C2021.32 416.574 2040 423.016 2059.44 426.563C2060.18 426.699 2060.33 425.55 2059.59 425.408C2014.51 417.179 1973.18 394.452 1932.03 375.333C1892.45 356.954 1851.44 340.529 1807.55 336.643C1770.63 333.373 1731.77 340.108 1705.89 368.924C1677.49 400.548 1678.22 442.483 1677.39 482.375C1675.61 567.799 1629.22 642.918 1573.17 704.663C1510.55 773.64 1431.67 829.209 1346.71 867.199C1260.46 905.773 1166.02 924.4 1071.66 914.264C981.988 904.632 896.103 870.627 819.901 823.136C737.237 771.618 668.216 703.782 605.842 629.5C541.32 552.674 482.448 470.93 411.656 399.54C342.493 329.786 262.275 274.157 168.551 243.096C85.7312 215.642 -3.10768 207.209 -89.557 219.181C-111.291 222.191 -132.806 226.493 -154.089 231.831C-154.816 232.019 -154.686 233.172 -153.964 232.99Z" fill="url(#paint33_linear_234_5272)" fill-opacity="0.38"/>
<path d="M-160.059 242.099C-71.6711 220.63 20.3609 220.034 108.919 240.998C207.099 264.244 295.854 313.045 370.791 380.237C449.681 450.969 513.32 536.143 580.473 617.548C641.036 690.966 705.771 760.729 783.934 815.745C855.053 865.807 935.234 904.521 1020.54 922.873C1108.21 941.734 1198.99 936.483 1284.33 909.255C1369.11 882.213 1448.16 836.119 1515.33 777.955C1580.05 721.913 1638.93 649.926 1664.37 566.907C1669.31 550.793 1672.8 534.234 1674.17 517.427C1675.95 495.595 1674.14 473.779 1674.12 451.932C1674.06 402.955 1691.56 353.863 1741.5 336.006C1782.91 321.199 1830.9 330.373 1871.48 343.463C1916.17 357.884 1957.56 380.758 2001.41 397.35C2019.8 404.308 2038.61 410.138 2058.1 413.029C2058.84 413.136 2058.99 411.987 2058.25 411.874C2012.08 405.013 1969.45 382.766 1927.17 364.189C1887.41 346.724 1846.35 331.261 1802.64 328.135C1765.25 325.462 1726.09 332.99 1700.34 362.431C1671.51 395.393 1672.54 438.961 1673.62 480.064C1674.71 521.683 1667.98 560.083 1651.52 598.388C1634.05 639.005 1609.22 676.312 1580.83 710.086C1519.64 782.903 1439.89 841.303 1353.64 881.013C1268.36 920.283 1174.75 939.779 1080.88 931.016C990.404 922.564 903.555 889.191 826.31 842.142C743.778 791.876 674.14 725.583 611.425 652.556C544.554 574.701 484.108 491.275 411.978 418.025C341.839 346.792 260.837 289.174 165.844 256.316C82.1055 227.348 -8.09014 217.433 -96.0157 228.88C-117.621 231.687 -139.017 235.787 -160.186 240.929C-160.918 241.124 -160.781 242.281 -160.059 242.099Z" fill="url(#paint34_linear_234_5272)" fill-opacity="0.38"/>
<path d="M-166.153 251.219C-77.1684 230.294 15.2683 230.928 104.004 252.896C203.558 277.539 293.288 328.124 369.19 396.658C447.97 467.796 512.173 552.713 579.99 633.871C642.087 708.193 708.515 778.669 788.49 834.03C861.064 884.266 942.82 922.914 1029.65 940.389C1118.81 958.33 1210.77 951.345 1296.73 922.034C1381.85 893.013 1461.11 844.648 1526.94 783.468C1588.81 725.955 1643.64 652.47 1664.58 569.386C1669.16 551.18 1671.75 532.603 1671.98 513.819C1672.24 491.952 1669.56 470.217 1669.01 448.379C1667.74 398.271 1685.48 347.297 1736.24 328.457C1777.23 313.238 1824.82 321.132 1865.53 333.291C1910.61 346.754 1952.56 368.808 1996.83 384.545C2016.29 391.459 2036.2 397.127 2056.75 399.522C2057.49 399.608 2057.65 398.458 2056.91 398.367C2010.2 392.94 1966.75 371.594 1923.83 353.734C1883.02 336.746 1840.95 321.683 1796.36 319.519C1758.36 317.683 1718.97 326.496 1693.7 357.064C1665.78 390.825 1666.6 434.743 1669.34 476.012C1670.83 498.363 1671.8 520.706 1668.64 542.961C1665.94 562 1660.88 580.665 1654.32 598.722C1639.23 640.188 1616.29 678.638 1589.41 713.506C1531.15 789.078 1452.82 849.714 1367.3 891.54C1282.22 933.152 1188.1 954.905 1093.24 947.957C1000.73 941.178 911.594 908.174 832.327 860.871C748.428 810.795 677.291 744.46 613.281 671.129C545.203 593.146 483.787 509.365 411.156 435.399C340.359 363.298 258.989 304.214 163.421 269.728C79.6376 239.497 -10.8546 227.975 -99.426 238.25C-121.931 240.864 -144.231 244.887 -166.277 250.071C-167.013 250.233 -166.882 251.386 -166.153 251.219Z" fill="url(#paint35_linear_234_5272)" fill-opacity="0.38"/>
<path d="M-172.247 260.328C-81.4533 239.677 12.7493 241.848 102.718 265.722C202.525 292.204 292.014 344.329 368.147 413.585C448.359 486.549 514.072 573.205 584.085 655.538C647.06 729.604 714.738 799.347 795.64 853.987C870.234 904.368 954.289 942.738 1043.25 958.601C1133.82 974.757 1226.61 965.184 1312.72 933.234C1398.34 901.466 1477.77 849.988 1541.77 784.846C1600.59 724.966 1651.28 648.625 1665.81 564.602C1673.31 521.266 1663.91 479.31 1663.41 435.952C1662.84 386.387 1684.06 337.505 1733.53 319.855C1774.91 305.09 1822.33 312.459 1863.48 324.227C1908.87 337.201 1951.34 358.601 1996.22 373.115C2015.49 379.347 2035.18 384.259 2055.4 385.983C2056.15 386.046 2056.3 384.897 2055.56 384.828C2009.2 380.869 1965.69 361.052 1922.92 344.157C1881.5 327.8 1839.15 313.014 1794.24 311.012C1755.74 309.297 1715.63 317.944 1689.59 348.48C1661.26 381.684 1660.28 425.962 1664.18 467.182C1666.41 490.815 1669.29 514.436 1667.79 538.218C1666.57 557.505 1662.9 576.608 1657.55 595.16C1645.52 636.864 1625.26 676.025 1600.76 711.715C1545.75 791.835 1468.02 856.22 1382.13 901.041C1296.73 945.615 1201.25 970.001 1104.65 964.612C1012.43 959.468 923.303 928.255 843.578 882.52C757.159 832.941 683.51 766.314 617.485 692.204C547.232 613.346 484.238 528.127 410.221 452.616C339.071 380.023 257.83 319.793 162.242 283.611C77.1288 251.398 -15.275 238.186 -105.884 247.949C-128.259 250.361 -150.44 254.182 -172.378 259.175C-173.113 259.337 -172.977 260.495 -172.247 260.328Z" fill="url(#paint36_linear_234_5272)" fill-opacity="0.38"/>
<path d="M-178.343 269.437C-85.4213 249.005 10.8682 252.855 102.298 278.883C202.865 307.51 292.498 361.713 369.088 432.347C448.923 505.969 515.119 592.384 585.887 674.355C650.226 748.886 719.539 818.826 802.028 873.321C877.29 923.035 961.79 960.673 1051.1 975.626C1142.73 990.969 1236.35 979.992 1322.76 946.33C1408.8 912.817 1488.26 859.111 1550.73 791.057C1607.84 728.841 1655.32 649.794 1665.32 564.557C1670.56 519.949 1658.96 476.9 1657.73 432.535C1656.35 383.015 1676.32 333.046 1724.9 313.376C1765.99 296.744 1814.04 302.734 1855.81 313.549C1903.22 325.828 1947.61 347.4 1994.53 361.239C2013.96 366.966 2033.78 371.299 2054.04 372.435C2054.79 372.476 2054.95 371.325 2054.2 371.279C2006.8 368.618 1962.01 349.322 1918.05 332.951C1875.63 317.143 1832.17 302.924 1786.43 302.214C1748.04 301.611 1708.66 311.504 1683.29 342.287C1655.17 376.409 1654.13 421.578 1659.04 463.385C1661.87 487.485 1665.87 511.496 1665.88 535.838C1665.89 555.453 1663.37 575.027 1659.04 594.138C1649.31 637.042 1630.76 677.744 1607.5 714.936C1555.13 798.668 1477.75 866.182 1391.32 913.143C1306.84 959.043 1211.87 984.84 1115.4 981.083C1021.79 977.439 931.079 946.768 849.817 901.139C761.926 851.785 686.703 784.959 619.328 710.502C548.283 631.979 484.585 546.995 410.558 471.132C338.422 397.199 256.419 335.028 159.723 297.057C73.619 263.245 -20.1284 248.433 -112.352 257.623C-134.597 259.841 -156.664 263.466 -178.492 268.27C-179.209 268.446 -179.073 269.604 -178.343 269.437Z" fill="url(#paint37_linear_234_5272)" fill-opacity="0.38"/>
<path d="M-184.436 278.546C-90.2009 258.521 7.27486 263.858 99.4464 291.438C201.677 322.023 292.191 378.594 369.926 451.056C449.966 525.673 516.984 612.494 588.98 694.541C655.211 770.009 726.833 840.388 811.766 894.71C888.373 943.707 974.183 980.285 1064.56 993.443C1158.53 1007.13 1253.96 993.024 1341.11 955.812C1427.52 918.918 1506.62 861.363 1566.33 788.652C1619.54 723.853 1661.6 642.345 1664.77 557.114C1666.47 511.28 1651.96 467.023 1651.74 421.375C1651.51 371.465 1674.23 322.808 1723.03 304.209C1764.44 288.43 1812.14 293.967 1854.14 304.44C1900.73 316.058 1944.71 336.203 1991.03 348.831C2011.2 354.334 2031.76 358.323 2052.71 358.916C2053.45 358.935 2053.61 357.785 2052.87 357.761C2005.27 356.424 1959.94 338.248 1915.59 322.644C1873.51 307.835 1830.72 294.405 1785.71 293.551C1746.51 292.806 1705.8 302.359 1679.29 333.266C1651.32 365.891 1647.8 410.25 1652.6 451.199C1655.44 475.474 1660.5 499.445 1662.66 523.804C1664.52 544.78 1663.89 565.775 1660.86 586.608C1654.52 630.089 1638.75 671.975 1617.84 710.479C1570.42 797.762 1495.72 868.818 1410.69 919.198C1327.71 968.361 1233.06 997.763 1136.23 997.58C1039.25 997.399 944.598 967.781 859.856 921.79C770.747 873.429 693.936 807.328 625.307 733.207C551.025 652.98 484.967 565.445 408.49 487.198C336.29 413.322 254.645 350.478 158.528 311.113C72.0445 275.687 -22.4715 259.018 -115.796 267.052C-138.924 269.042 -161.875 272.566 -184.577 277.395C-185.302 277.555 -185.167 278.702 -184.436 278.546Z" fill="url(#paint38_linear_234_5272)" fill-opacity="0.38"/>
<path d="M-190.532 287.666C-94.6375 267.994 4.3562 274.959 97.5436 304.344C200.151 336.697 290.692 394.793 368.872 468.044C450.342 544.377 518.956 632.751 593.17 715.832C660.759 791.498 734.123 861.645 820.651 915.397C898.833 963.963 986.321 999.751 1078.1 1011.05C1173.35 1022.77 1269.37 1006.04 1356.37 966.076C1442.09 926.703 1519.77 866.597 1576.55 791.031C1626.7 724.291 1663.97 641.546 1663.03 556.732C1662.49 508.117 1645.09 461.281 1645.74 412.654C1646.38 363.364 1669.11 315.887 1716.75 296.712C1759.23 279.617 1808.61 284.772 1852.07 295.142C1898.69 306.271 1942.96 325.503 1989.5 336.968C2009.84 341.982 2030.53 345.37 2051.52 345.401C2052.26 345.404 2052.12 344.247 2051.38 344.25C2001.78 344.179 1954.25 325.822 1907.78 310.504C1865.61 296.601 1822.6 284.366 1777.79 284.74C1737.63 285.071 1696.57 296.609 1670.91 329.425C1644 363.822 1641.59 409.126 1647.37 450.727C1653.82 497.198 1665.27 541.726 1660.34 589.032C1655.81 632.384 1642.08 674.527 1622.94 713.557C1579.13 802.914 1506.69 876.405 1422.77 928.903C1340.36 980.462 1245.27 1012.1 1147.69 1013.63C1049.6 1015.18 953.545 986.541 867.346 940.906C777.343 893.261 699.299 827.67 629.636 753.891C553.994 673.77 486.903 585.988 410.065 506.957C336.099 430.877 252.849 365.423 154.476 324.029C67.4549 287.418 -27.8375 269.366 -122.218 276.752C-145.215 278.55 -168.057 281.884 -190.656 286.518C-191.405 286.659 -191.264 287.811 -190.532 287.666Z" fill="url(#paint39_linear_234_5272)" fill-opacity="0.38"/>
<path d="M-196.624 296.775C-100.136 277.675 -0.767438 285.896 92.538 316.287C196.374 350.111 287.801 409.851 367.036 484.291C449.396 561.673 519.272 650.796 595.033 734.36C663.531 809.92 737.913 879.821 825.232 933.277C905.211 982.246 994.758 1018 1088.47 1028.05C1185.35 1038.44 1282.56 1019.44 1369.87 976.712C1455.8 934.659 1532.72 871.289 1586.74 792.024C1634.21 722.377 1666.95 636.901 1660.59 551.494C1656.89 501.823 1638.09 453.792 1639.69 403.652C1641.26 354.2 1664.82 307.55 1712.41 288.328C1754.75 271.222 1803.87 275.509 1847.44 285.16C1894.37 295.551 1939.1 313.999 1985.99 324.588C2007.08 329.355 2028.52 332.392 2050.18 331.867C2050.93 331.852 2050.78 330.696 2050.04 330.715C2001.3 331.891 1954.16 315.36 1908.25 301.05C1865.46 287.719 1822.14 275.571 1776.93 275.828C1736.66 276.053 1695 286.793 1668.05 318.653C1639.45 352.453 1635.13 398.785 1640.75 441.073C1647.11 488.983 1661.93 534.928 1659.96 583.773C1658.19 627.686 1646.92 670.95 1629.78 711.29C1590.68 803.283 1521.18 880.13 1438.71 935.606C1357.02 990.555 1261.25 1025.39 1162.51 1029.38C1062.64 1033.42 964.37 1005.96 876.019 960.539C784.619 913.551 704.964 848.185 633.95 774.401C556.525 693.959 488.042 605.443 410.275 525.313C335.64 448.405 252.121 381.435 153.376 338.228C65.9262 299.965 -30.1511 280.013 -125.702 286.219C-149.579 287.772 -173.285 290.981 -196.749 295.627C-197.498 295.768 -197.356 296.92 -196.624 296.775Z" fill="url(#paint40_linear_234_5272)" fill-opacity="0.38"/>
<path d="M-202.719 305.884C-104.348 287.116 -3.2582 297.094 91.1991 329.456C197.062 365.727 289.576 428.478 370.203 505.273C452.168 583.348 522.587 672.267 599.236 755.335C669.359 831.33 745.73 901.263 835.008 954.236C916.351 1002.5 1007.23 1037.13 1101.97 1045.2C1199.33 1053.5 1296.49 1032.14 1382.98 987.158C1467.95 942.968 1542.98 877.409 1594.01 796.024C1639.34 723.739 1667.96 636.226 1657.81 550.253C1651.76 499.062 1631.63 449.466 1633.48 397.399C1635.26 347.254 1659.21 300.05 1707.26 280.209C1749.58 262.73 1798.6 266.147 1842.51 275.1C1890.47 284.88 1936.31 302.943 1984.29 312.614C2005.55 316.903 2027.12 319.383 2048.83 318.334C2049.57 318.298 2049.43 317.146 2048.68 317.183C1998.94 319.59 1950.55 303.654 1903.41 289.881C1859.6 277.083 1815.19 265.522 1769.15 266.95C1727.84 268.234 1685.74 280.899 1659.5 314.739C1631.85 350.403 1628.71 397.864 1635.28 440.945C1642.56 488.703 1658.43 534.636 1658.66 583.383C1658.86 628.519 1649.17 673.432 1633.09 715.483C1597.12 809.556 1529.49 889.07 1447.52 946.613C1367.53 1002.75 1272.88 1039.08 1175 1044.99C1073.66 1051.11 973.507 1024.63 883.347 979.388C792.093 933.596 712 869.596 640.583 797.119C560.422 715.767 489.908 625.575 410.425 543.593C334.308 465.086 249.514 396.088 149.143 351.09C61.2094 311.674 -35.5934 290.349 -132.141 295.895C-155.887 297.255 -179.484 300.274 -202.843 304.736C-203.588 304.871 -203.457 306.025 -202.719 305.884Z" fill="url(#paint41_linear_234_5272)" fill-opacity="0.38"/>
<path d="M-208.816 314.993C-108.782 296.611 -6.2188 308.299 89.2014 342.484C195.385 380.52 287.999 444.753 369.146 522.278C452.523 601.928 524.615 692.213 603.446 776.161C673.592 850.868 750.011 919.433 838.708 971.489C923.203 1021.08 1017.83 1056.05 1116.19 1062.17C1214.23 1068.26 1311.52 1044.19 1397.19 996.613C1481.64 949.714 1554.8 881.096 1602.53 796.758C1645.88 720.166 1669 629.717 1653.51 542.023C1644.49 490.937 1624.52 440.909 1627.34 388.298C1630.01 338.495 1654.37 292.328 1701.66 272.193C1744.96 253.75 1795.44 256.79 1840.63 265.596C1888.85 274.991 1935.19 292.265 1983.61 300.757C2004.72 304.464 2026.08 306.324 2047.49 304.787C2048.24 304.734 2048.09 303.577 2047.35 303.636C1997.43 307.218 1948.46 292.383 1900.87 279.344C1856.57 267.208 1811.76 256.093 1765.44 257.931C1724.83 259.543 1683.28 271.763 1656.41 303.99C1627.13 339.103 1622.17 387.499 1628.35 431.279C1635.44 481.569 1654.1 529.515 1656.86 580.525C1659.28 625.368 1652.07 670.494 1638.24 713.112C1607.06 809.273 1542.85 892.143 1462.6 952.702C1382.8 1012.92 1286.47 1052.61 1186.46 1060.48C1084.52 1068.49 983.298 1043.3 891.976 998.794C799.323 953.637 717.672 889.795 644.902 817.302C563.454 736.163 491.846 645.913 411.96 563.302C335.146 483.877 250.127 413.131 149.442 366.07C59.8028 324.172 -39.3544 300.605 -138.588 305.565C-162.212 306.745 -185.69 309.572 -208.951 313.846C-209.691 313.975 -209.554 315.133 -208.816 314.993Z" fill="url(#paint42_linear_234_5272)" fill-opacity="0.38"/>
<path d="M-214.908 324.113C-114.041 306.274 -10.8794 319.334 84.818 354.698C191.884 394.258 285.097 459.961 367.175 538.42C452.071 619.571 525.911 711.202 606.917 796.063C678.924 871.507 757.5 940.441 848.463 992.225C934.333 1041.11 1030.34 1074.83 1129.67 1078.85C1227.62 1082.81 1324.33 1056.6 1408.72 1007.18C1494.04 957.214 1566.43 884.373 1611.04 795.753C1651.7 714.973 1668.26 623.185 1648.41 534.295C1637.14 483.827 1617.88 433.888 1621.04 381.372C1624.06 331.202 1648.64 284.946 1696.01 264.179C1739.03 245.319 1789.25 247.347 1834.56 255.29C1883.74 263.921 1931.12 280.748 1980.5 288.472C2002.23 291.871 2024.19 293.343 2046.13 291.273C2046.87 291.204 2046.73 290.052 2045.98 290.121C1996.53 294.776 1947.7 281.442 1900.23 269.269C1854.78 257.611 1808.94 246.596 1761.64 248.869C1720.31 250.855 1678 263.599 1650.69 296.398C1622.16 330.646 1615.94 377.907 1621.24 420.901C1627.64 472.778 1648.15 521.741 1654.04 573.724C1659.08 618.278 1654.7 663.675 1643.43 706.977C1617.58 806.376 1556.51 893.969 1477.18 958.346C1399.57 1021.33 1304.13 1064.08 1204.47 1075.11C1101.33 1086.52 998.073 1063.51 904.644 1019.99C809.905 975.854 726.005 912.15 651.397 839.469C567.286 757.527 493.614 665.781 412.002 581.458C334.449 501.319 249.12 429.221 148.143 380.409C57.6776 336.676 -42.715 311.132 -143.581 315.151C-167.569 316.106 -191.431 318.771 -215.068 322.947C-215.785 323.085 -215.648 324.243 -214.908 324.113Z" fill="url(#paint43_linear_234_5272)" fill-opacity="0.38"/>
<path d="M-221.006 333.222C-118.468 315.784 -13.8484 330.612 82.7779 367.792C190.825 409.366 284.607 477.106 367.641 556.881C453.326 639.199 528.489 731.5 611.209 816.669C684.55 892.191 764.71 960.959 857.12 1012.17C944.849 1060.79 1042.84 1093.53 1143.78 1095.29C1242.59 1097.02 1339.7 1067.92 1423.23 1015.54C1507.26 962.858 1576.89 887.214 1617.74 796.462C1636.65 754.455 1649.42 709.513 1654.18 663.655C1658.89 618.401 1654.72 573.806 1643.47 529.788C1630.49 479.007 1611.3 428.392 1614.65 375.131C1617.85 324.133 1642.87 277.294 1690.82 255.882C1734.66 236.303 1785.97 237.9 1832.38 245.609C1881.47 253.759 1929 269.635 1978.39 276.322C2000.43 279.307 2022.66 280.3 2044.79 277.743C2045.53 277.657 2045.39 276.505 2044.65 276.591C1994.96 282.334 1945.59 270.052 1897.61 258.578C1851.28 247.501 1804.61 236.874 1756.63 239.81C1714.33 242.401 1671.23 256.136 1643.79 290.174C1615.29 325.522 1609.37 373.76 1615.01 417.562C1621.75 469.772 1642.8 518.813 1650.97 570.748C1658.08 615.974 1655.68 662.429 1646.06 707.101C1624.41 807.739 1566.83 898.216 1489.34 965.246C1413.21 1031.11 1317.99 1076.41 1217.95 1089.88C1113.62 1103.93 1008.34 1082.15 913.128 1039.06C817.075 995.593 731.711 932.053 655.802 859.416C569.912 777.223 494.691 684.857 412.037 599.553C333.362 518.36 247.26 444.675 145.427 394.105C54.5306 348.975 -46.582 321.699 -148.536 324.759C-172.889 325.488 -197.129 327.985 -221.142 332.064C-221.882 332.194 -221.741 333.345 -221.006 333.222Z" fill="url(#paint44_linear_234_5272)" fill-opacity="0.38"/>
<path d="M-227.099 342.332C-122.628 325.274 -16.3118 342.017 81.4188 381.229C190.019 424.797 284.052 494.304 367.831 575.074C453.826 657.988 529.969 750.318 613.76 835.361C689.185 911.912 771.749 981.438 866.757 1032.52C955.743 1080.37 1054.89 1111.75 1156.59 1111.47C1256.24 1111.2 1353.81 1079.36 1436.49 1024.14C1519.52 968.7 1586.53 890.051 1623.74 797.067C1640.93 754.084 1651.78 708.407 1654.62 662.162C1657.5 615.246 1650.77 569.747 1638 524.648C1623.46 473.329 1604.33 421.72 1608.29 367.502C1612 316.617 1637.02 270.116 1684.48 248.068C1728.54 227.602 1780.39 228.361 1827.46 235.442C1877.13 242.91 1925.35 258.128 1975.3 264.034C1997.96 266.711 2020.8 267.299 2043.45 264.209C2044.19 264.107 2044.04 262.956 2043.31 263.057C1944.48 276.505 1850.62 223.394 1751.61 230.703C1708.84 233.86 1665.3 248.294 1637.72 282.835C1609.39 318.306 1603.09 366.232 1608.23 410.157C1614.51 463.818 1636.66 513.975 1647.23 566.718C1656.41 612.502 1656.21 659.833 1648.4 705.8C1631.09 807.646 1577.39 901.145 1501.91 971.094C1427.62 1039.94 1332.95 1087.94 1232.77 1104.15C1128.01 1121.12 1021.33 1101.3 924.712 1059.37C827.115 1017.02 739.98 953.887 662.589 881.437C574.498 798.969 497.503 705.767 413.625 619.202C334.135 537.166 247.726 461.886 145.609 409.315C53.7412 362.021 -48.7664 332.457 -152.655 334.36C-177.648 334.815 -202.548 337.15 -227.218 341.177C-227.981 341.298 -227.84 342.45 -227.099 342.332Z" fill="url(#paint45_linear_234_5272)" fill-opacity="0.38"/>
<path d="M-233.196 351.441C-127.31 334.86 -19.8599 353.295 78.5542 394.121C188.299 439.645 283.11 511.174 368.049 593.302C454.765 677.153 532.189 769.943 617.502 855.163C694.02 931.597 777.808 1000.85 873.867 1051.42C964.27 1099 1064.95 1129.56 1167.79 1127.49C1268.52 1125.46 1366.8 1091.01 1448.81 1032.88C1531.28 974.425 1595.93 892.217 1629.41 796.541C1644.76 752.66 1653.63 706.398 1654.53 659.884C1655.47 611.441 1646.16 565.145 1632.01 519.013C1616.33 467.835 1597.79 416.054 1601.75 361.67C1605.57 309.256 1631.55 261.682 1680.43 239.13C1774.36 195.791 1877.92 242.565 1973.6 251.905C1996.43 254.132 2019.38 254.22 2042.09 250.682C2042.82 250.57 2042.69 249.412 2041.95 249.531C1942.69 264.994 1847.38 213.412 1747.94 221.459C1704.55 224.972 1660.49 239.752 1632.3 274.594C1602.97 310.832 1596.46 360.097 1601.66 405.173C1607.87 459.107 1630.21 509.457 1642.8 561.929C1653.96 608.44 1656.12 656.596 1650.14 704.025C1637.25 806.162 1588.23 901.937 1515.85 974.72C1443.12 1047.86 1347.77 1099.41 1246.26 1118.34C1140.54 1138.06 1032.01 1119.77 933.645 1078.43C834.517 1036.77 745.759 973.66 666.946 901.092C577.279 818.541 498.824 724.985 414.018 637.656C333.247 554.482 245.931 477.51 142.834 423.113C50.3389 374.307 -53.0632 342.983 -158.274 344.001C-183.425 344.243 -208.497 346.395 -233.349 350.29C-234.079 350.408 -233.937 351.559 -233.196 351.441Z" fill="url(#paint46_linear_234_5272)" fill-opacity="0.38"/>
<path d="M-239.294 360.556C-131.987 344.457 -23.3889 364.604 75.7101 407.056C186.579 454.548 282.185 528.103 368.308 611.569C455.788 696.341 534.518 789.572 621.368 874.962C699.319 951.6 784.741 1020.91 882.395 1070.96C974.842 1118.34 1077.73 1147.85 1182.29 1143.22C1283.9 1138.71 1382.57 1100.98 1463.31 1039.48C1543.96 978.053 1605 892.963 1634.44 795.736C1647.88 751.368 1654.75 704.959 1653.94 658.585C1653.05 607.935 1640.97 560.13 1625.38 512.211C1608.56 460.507 1590.55 407.74 1595.46 352.544C1600.11 300.254 1626.7 253.41 1675.25 230.672C1770 186.295 1874.81 232.188 1971.94 239.746C1994.92 241.534 2018 241.133 2040.75 237.159C2041.48 237.036 2041.35 235.878 2040.61 236.008C1940.92 253.426 1844.22 203.378 1744.29 212.157C1700.87 215.972 1656.76 230.753 1627.94 265.053C1597.35 301.48 1590.02 351.513 1594.78 397.552C1600.31 451.057 1622.08 501.085 1636.62 552.431C1650.41 601.199 1655.59 651.461 1651.32 702.011C1642.66 804.66 1598.08 903.011 1528.44 978.662C1457.6 1055.63 1362.26 1110.56 1259.84 1132.23C1152.83 1154.87 1042.12 1138.02 941.69 1096.99C841.44 1056.04 751.428 993.138 671.444 920.725C580.186 838.111 500.258 744.199 414.5 656.117C332.813 572.216 245.016 493.897 141.564 437.729C48.0671 386.962 -56.7595 353.513 -163.856 353.637C-189.166 353.668 -214.413 355.643 -239.437 359.394C-240.172 359.517 -240.031 360.669 -239.294 360.556Z" fill="url(#paint47_linear_234_5272)" fill-opacity="0.38"/>
<path d="M-245.385 369.671C-137.213 354.139 -27.9993 375.71 71.353 419.372C182.825 468.357 278.973 543.191 366.01 627.361C455.3 713.714 536.08 808.369 625.342 894.759C704.39 971.263 791.024 1040.34 889.746 1089.83C984.119 1137.14 1089.16 1165.76 1195.31 1158.77C1297.36 1152.05 1396 1111.58 1475.31 1047.36C1554.01 983.636 1611.61 896.552 1637.79 798.608C1650.18 752.217 1655.54 703.883 1652.84 655.913C1649.91 603.578 1635.15 554.592 1618.4 505.25C1600.67 453.049 1583.3 399.332 1589.15 343.453C1594.66 290.765 1622.33 244.384 1671.24 221.636C1766.25 177.442 1871.08 221.413 1968.84 227.487C1992.46 228.955 2016.12 228.139 2039.4 223.649C2040.12 223.51 2039.99 222.357 2039.26 222.497C1938.68 241.9 1840.19 192.861 1739.28 202.946C1695.28 207.345 1650.77 222.804 1621.71 257.701C1591.67 293.797 1583.81 342.896 1587.76 388.51C1592.48 443.025 1614.38 494.051 1630.6 545.759C1646.32 595.89 1654.26 647.203 1651.93 699.787C1647.38 802.444 1607.57 902.763 1541.32 981.207C1472.33 1062.9 1376.17 1121.83 1272.04 1146.19C1164.62 1171.32 1052.68 1156.15 950.912 1115.97C849.633 1075.98 758.386 1013.53 677.294 941.478C583.708 858.321 501.762 763.373 414.385 673.967C330.755 588.392 241.278 508.023 135.914 450.027C41.9055 398.281 -63.5492 363.624 -171.617 363.294C-196.355 363.221 -221.044 365.023 -245.529 368.536C-246.264 368.621 -246.127 369.779 -245.385 369.671Z" fill="url(#paint48_linear_234_5272)" fill-opacity="0.38"/>
<path d="M-251.481 378.782C-141.849 363.743 -31.525 387.075 68.5123 432.362C181.109 483.326 278.095 560.219 366.387 645.713C456.9 733.356 539.387 828.894 630.69 915.738C711.209 992.321 799.554 1061.27 899.911 1109.97C995.999 1156.61 1102.83 1183.69 1210.06 1173.91C1311.59 1164.65 1409.18 1121.7 1486.38 1055.42C1563.7 989.038 1618.22 899.293 1641.1 799.968C1651.99 752.669 1655.69 703.65 1651.43 655.283C1646.77 602.26 1630.31 552.762 1612.79 502.835C1594.4 450.451 1577.03 396.402 1582.23 340.135C1587.22 286.16 1614.61 238.037 1664.3 213.891C1760.3 167.244 1867.55 210.939 1967.17 215.268C1990.94 216.304 2014.73 215.016 2038.04 210.107C2038.77 209.957 2038.63 208.799 2037.9 208.955C1936.54 230.291 1836.35 182.464 1734.54 193.646C1689.33 198.613 1643.79 215.146 1614.47 251.499C1584.3 288.911 1576.88 339.292 1581.3 385.945C1586.52 440.989 1608.71 492.488 1625.99 544.457C1642.86 595.213 1652.69 647.088 1651.95 700.694C1650.56 803.262 1614.86 904.935 1551.58 985.694C1485.62 1069.9 1391.16 1131.57 1287.82 1158.94C1179.49 1187.63 1065.55 1174.74 961.632 1135.38C858.777 1096.42 765.829 1034.18 683.263 962.166C588.429 879.45 505.257 784.713 417.382 694.927C332.059 607.744 241.362 525.066 134.638 464.711C39.6371 410.991 -67.2508 374.095 -177.229 372.891C-202.124 372.616 -226.968 374.238 -251.635 377.62C-252.36 377.731 -252.225 378.878 -251.481 378.782Z" fill="url(#paint49_linear_234_5272)" fill-opacity="0.38"/>
<path d="M-257.579 387.891C-145.92 373.277 -33.9082 398.723 67.2027 446.107C180.273 499.081 277.624 577.694 366.799 664.094C458.14 752.6 542.027 848.523 634.894 935.49C716.509 1011.93 806.031 1080.63 907.453 1128.75C1005.33 1175.18 1114.28 1201.29 1222.86 1188.97C1324.86 1177.39 1422.33 1131.67 1497.97 1062.5C1574.03 992.931 1625.39 899.776 1644.5 798.552C1653.59 750.432 1655.43 700.886 1649.44 652.263C1642.79 598.322 1624.21 548.073 1605.94 497.224C1586.76 443.845 1569.67 388.34 1575.89 330.927C1581.73 277.051 1609.7 229.585 1659.15 205.27C1755.99 157.653 1864.54 200.472 1965.52 203.029C1989.45 203.638 2013.33 201.891 2036.7 196.578C2037.42 196.412 2037.29 195.259 2036.56 195.426C1934.32 218.678 1832.37 171.933 1729.55 184.349C1684.22 189.827 1638.72 206.741 1609.09 242.994C1578.44 280.499 1570.41 331.053 1574.35 378.141C1579 433.668 1600.91 485.687 1619.31 537.683C1637.46 588.938 1649.97 640.948 1651.54 695.484C1654.54 798.671 1623.51 902.715 1563.56 986.861C1500.02 1076.03 1405.05 1142.01 1300.01 1172.34C1191.44 1203.7 1076.31 1192.64 971.062 1154.21C866.643 1116.09 772.027 1053.87 688.045 981.731C592.127 899.346 507.768 804.871 419.333 714.795C332.6 626.451 240.981 541.973 133.382 479.519C37.3736 423.794 -70.9135 384.665 -182.831 382.535C-207.872 382.058 -232.892 383.504 -257.73 386.752C-258.464 386.836 -258.323 387.988 -257.579 387.891Z" fill="url(#paint50_linear_234_5272)" fill-opacity="0.38"/>
<path d="M-263.674 397.004C-156.85 383.661 -49.7163 407.242 47.5772 451.338C150.594 498.03 241.69 566.166 324.686 642.306C422.578 732.109 510.506 831.975 606.159 924.066C688.409 1003.25 777.124 1076.2 878.616 1129.47C970.794 1177.86 1073.33 1209.78 1178.2 1208.11C1285.78 1206.39 1390.83 1167.35 1474.56 1099.97C1557 1033.64 1614.79 941.352 1639.28 838.48C1651.5 787.151 1655.54 733.834 1650.91 681.26C1645.98 625.216 1629.28 572.795 1609.66 520.369C1588.81 464.664 1567.04 407.743 1567.85 347.343C1568.6 291.561 1589.61 237.03 1637.84 205.789C1684.06 175.847 1742.73 170.883 1796.37 174.224C1850.97 177.617 1904.74 189.672 1959.55 190.696C1985.07 191.175 2010.53 189.097 2035.37 183.041C2036.08 182.865 2035.95 181.712 2035.22 181.889C1928.02 208.019 1819.98 157.895 1712.13 176.923C1663.81 185.448 1617.65 208.505 1591.55 251.566C1565.08 295.24 1562.49 349.594 1570.9 398.814C1580.81 456.823 1606.25 510.69 1624.93 566.111C1643 619.742 1652.49 675.369 1651.54 732.03C1649.74 840.676 1611.61 948.465 1541.96 1032.17C1470.26 1118.33 1367.86 1178.51 1257.66 1199.06C1150.58 1219.03 1040.48 1199.43 940.946 1157.64C838.329 1114.56 746.478 1049.53 663.657 975.845C563.945 887.126 475.398 786.972 380.246 693.573C297.579 612.435 209.262 536.567 107.527 480.238C16.4427 429.804 -85.1442 394.622 -189.983 392.109C-214.658 391.515 -239.329 392.802 -263.82 395.859C-264.559 395.949 -264.418 397.101 -263.674 397.004Z" fill="url(#paint51_linear_234_5272)" fill-opacity="0.38"/>
<defs>
<linearGradient id="paint0_linear_234_5272" x1="1355.74" y1="43.3806" x2="913.547" y2="609.368" gradientUnits="userSpaceOnUse">
<stop stop-color="#64F373"/>
<stop offset="1" stop-color="white" stop-opacity="0.35"/>
</linearGradient>
<linearGradient id="paint1_linear_234_5272" x1="1350.41" y1="43.2376" x2="903.437" y2="615.34" gradientUnits="userSpaceOnUse">
<stop stop-color="#64F373"/>
<stop offset="1" stop-color="white" stop-opacity="0.35"/>
</linearGradient>
<linearGradient id="paint2_linear_234_5272" x1="1345.26" y1="42.8783" x2="893.336" y2="621.317" gradientUnits="userSpaceOnUse">
<stop stop-color="#64F373"/>
<stop offset="1" stop-color="white" stop-opacity="0.35"/>
</linearGradient>
<linearGradient id="paint3_linear_234_5272" x1="1340.26" y1="42.3158" x2="883.232" y2="627.292" gradientUnits="userSpaceOnUse">
<stop stop-color="#64F373"/>
<stop offset="1" stop-color="white" stop-opacity="0.35"/>
</linearGradient>
<linearGradient id="paint4_linear_234_5272" x1="1335.47" y1="41.4934" x2="873.089" y2="633.32" gradientUnits="userSpaceOnUse">
<stop stop-color="#64F373"/>
<stop offset="1" stop-color="white" stop-opacity="0.35"/>
</linearGradient>
<linearGradient id="paint5_linear_234_5272" x1="1331.03" y1="40.2385" x2="862.993" y2="639.302" gradientUnits="userSpaceOnUse">
<stop stop-color="#64F373"/>
<stop offset="1" stop-color="white" stop-opacity="0.35"/>
</linearGradient>
<linearGradient id="paint6_linear_234_5272" x1="1326.75" y1="38.6859" x2="852.85" y2="645.25" gradientUnits="userSpaceOnUse">
<stop stop-color="#64F373"/>
<stop offset="1" stop-color="white" stop-opacity="0.35"/>
</linearGradient>
<linearGradient id="paint7_linear_234_5272" x1="1322.67" y1="36.9445" x2="842.744" y2="651.221" gradientUnits="userSpaceOnUse">
<stop stop-color="#64F373"/>
<stop offset="1" stop-color="white" stop-opacity="0.35"/>
</linearGradient>
<linearGradient id="paint8_linear_234_5272" x1="1318.69" y1="35.0551" x2="832.63" y2="657.193" gradientUnits="userSpaceOnUse">
<stop stop-color="#64F373"/>
<stop offset="1" stop-color="white" stop-opacity="0.35"/>
</linearGradient>
<linearGradient id="paint9_linear_234_5272" x1="1315.59" y1="32.066" x2="822.522" y2="663.167" gradientUnits="userSpaceOnUse">
<stop stop-color="#64F373"/>
<stop offset="1" stop-color="white" stop-opacity="0.35"/>
</linearGradient>
<linearGradient id="paint10_linear_234_5272" x1="1312.85" y1="28.5952" x2="812.409" y2="669.138" gradientUnits="userSpaceOnUse">
<stop stop-color="#64F373"/>
<stop offset="1" stop-color="white" stop-opacity="0.35"/>
</linearGradient>
<linearGradient id="paint11_linear_234_5272" x1="1310.48" y1="24.6915" x2="802.31" y2="675.12" gradientUnits="userSpaceOnUse">
<stop stop-color="#64F373"/>
<stop offset="1" stop-color="white" stop-opacity="0.35"/>
</linearGradient>
<linearGradient id="paint12_linear_234_5272" x1="1308.34" y1="20.4344" x2="792.185" y2="681.082" gradientUnits="userSpaceOnUse">
<stop stop-color="#64F373"/>
<stop offset="1" stop-color="white" stop-opacity="0.35"/>
</linearGradient>
<linearGradient id="paint13_linear_234_5272" x1="1306.43" y1="15.8878" x2="782.071" y2="687.046" gradientUnits="userSpaceOnUse">
<stop stop-color="#64F373"/>
<stop offset="1" stop-color="white" stop-opacity="0.35"/>
</linearGradient>
<linearGradient id="paint14_linear_234_5272" x1="1304.77" y1="11.0491" x2="771.957" y2="693.017" gradientUnits="userSpaceOnUse">
<stop stop-color="#64F373"/>
<stop offset="1" stop-color="white" stop-opacity="0.35"/>
</linearGradient>
<linearGradient id="paint15_linear_234_5272" x1="1303.33" y1="5.91994" x2="761.845" y2="698.986" gradientUnits="userSpaceOnUse">
<stop stop-color="#64F373"/>
<stop offset="1" stop-color="white" stop-opacity="0.35"/>
</linearGradient>
<linearGradient id="paint16_linear_234_5272" x1="1302.09" y1="0.537418" x2="751.737" y2="704.961" gradientUnits="userSpaceOnUse">
<stop stop-color="#64F373"/>
<stop offset="1" stop-color="white" stop-opacity="0.35"/>
</linearGradient>
<linearGradient id="paint17_linear_234_5272" x1="1301.03" y1="-5.07339" x2="741.63" y2="710.935" gradientUnits="userSpaceOnUse">
<stop stop-color="#64F373"/>
<stop offset="1" stop-color="white" stop-opacity="0.35"/>
</linearGradient>
<linearGradient id="paint18_linear_234_5272" x1="1300.15" y1="-10.9404" x2="731.51" y2="716.896" gradientUnits="userSpaceOnUse">
<stop stop-color="#64F373"/>
<stop offset="1" stop-color="white" stop-opacity="0.35"/>
</linearGradient>
<linearGradient id="paint19_linear_234_5272" x1="1299.46" y1="-17.0071" x2="721.402" y2="722.874" gradientUnits="userSpaceOnUse">
<stop stop-color="#64F373"/>
<stop offset="1" stop-color="white" stop-opacity="0.35"/>
</linearGradient>
<linearGradient id="paint20_linear_234_5272" x1="1298.92" y1="-23.2805" x2="711.297" y2="728.846" gradientUnits="userSpaceOnUse">
<stop stop-color="#64F373"/>
<stop offset="1" stop-color="white" stop-opacity="0.35"/>
</linearGradient>
<linearGradient id="paint21_linear_234_5272" x1="1298.54" y1="-29.7815" x2="701.178" y2="734.813" gradientUnits="userSpaceOnUse">
<stop stop-color="#64F373"/>
<stop offset="1" stop-color="white" stop-opacity="0.35"/>
</linearGradient>
<linearGradient id="paint22_linear_234_5272" x1="1298.36" y1="-36.5265" x2="691.066" y2="740.778" gradientUnits="userSpaceOnUse">
<stop stop-color="#64F373"/>
<stop offset="1" stop-color="white" stop-opacity="0.35"/>
</linearGradient>
<linearGradient id="paint23_linear_234_5272" x1="1298.9" y1="-44.2015" x2="680.945" y2="746.747" gradientUnits="userSpaceOnUse">
<stop stop-color="#64F373"/>
<stop offset="1" stop-color="white" stop-opacity="0.35"/>
</linearGradient>
<linearGradient id="paint24_linear_234_5272" x1="1301.56" y1="-54.5989" x2="670.827" y2="752.712" gradientUnits="userSpaceOnUse">
<stop stop-color="#64F373"/>
<stop offset="1" stop-color="white" stop-opacity="0.35"/>
</linearGradient>
<linearGradient id="paint25_linear_234_5272" x1="1304.25" y1="-64.9787" x2="660.732" y2="758.694" gradientUnits="userSpaceOnUse">
<stop stop-color="#64F373"/>
<stop offset="1" stop-color="white" stop-opacity="0.35"/>
</linearGradient>
<linearGradient id="paint26_linear_234_5272" x1="1306.93" y1="-75.3687" x2="650.629" y2="764.667" gradientUnits="userSpaceOnUse">
<stop stop-color="#64F373"/>
<stop offset="1" stop-color="white" stop-opacity="0.35"/>
</linearGradient>
<linearGradient id="paint27_linear_234_5272" x1="1309.6" y1="-85.7755" x2="640.505" y2="770.633" gradientUnits="userSpaceOnUse">
<stop stop-color="#64F373"/>
<stop offset="1" stop-color="white" stop-opacity="0.35"/>
</linearGradient>
<linearGradient id="paint28_linear_234_5272" x1="1312.27" y1="-96.1578" x2="630.397" y2="776.605" gradientUnits="userSpaceOnUse">
<stop stop-color="#64F373"/>
<stop offset="1" stop-color="white" stop-opacity="0.35"/>
</linearGradient>
<linearGradient id="paint29_linear_234_5272" x1="1314.94" y1="-106.554" x2="620.285" y2="782.572" gradientUnits="userSpaceOnUse">
<stop stop-color="#64F373"/>
<stop offset="1" stop-color="white" stop-opacity="0.35"/>
</linearGradient>
<linearGradient id="paint30_linear_234_5272" x1="1317.61" y1="-116.951" x2="610.171" y2="788.54" gradientUnits="userSpaceOnUse">
<stop stop-color="#64F373"/>
<stop offset="1" stop-color="white" stop-opacity="0.35"/>
</linearGradient>
<linearGradient id="paint31_linear_234_5272" x1="1320.29" y1="-127.307" x2="600.074" y2="794.526" gradientUnits="userSpaceOnUse">
<stop stop-color="#64F373"/>
<stop offset="1" stop-color="white" stop-opacity="0.35"/>
</linearGradient>
<linearGradient id="paint32_linear_234_5272" x1="1322.94" y1="-137.699" x2="589.953" y2="800.486" gradientUnits="userSpaceOnUse">
<stop stop-color="#64F373"/>
<stop offset="1" stop-color="white" stop-opacity="0.35"/>
</linearGradient>
<linearGradient id="paint33_linear_234_5272" x1="1325.67" y1="-148.085" x2="579.831" y2="806.546" gradientUnits="userSpaceOnUse">
<stop stop-color="#64F373"/>
<stop offset="1" stop-color="white" stop-opacity="0.35"/>
</linearGradient>
<linearGradient id="paint34_linear_234_5272" x1="1328.34" y1="-158.493" x2="569.712" y2="812.511" gradientUnits="userSpaceOnUse">
<stop stop-color="#64F373"/>
<stop offset="1" stop-color="white" stop-opacity="0.35"/>
</linearGradient>
<linearGradient id="paint35_linear_234_5272" x1="1331.01" y1="-168.872" x2="559.605" y2="818.49" gradientUnits="userSpaceOnUse">
<stop stop-color="#64F373"/>
<stop offset="1" stop-color="white" stop-opacity="0.35"/>
</linearGradient>
<linearGradient id="paint36_linear_234_5272" x1="1333.68" y1="-179.28" x2="549.485" y2="824.454" gradientUnits="userSpaceOnUse">
<stop stop-color="#64F373"/>
<stop offset="1" stop-color="white" stop-opacity="0.35"/>
</linearGradient>
<linearGradient id="paint37_linear_234_5272" x1="1336.35" y1="-189.696" x2="539.355" y2="830.412" gradientUnits="userSpaceOnUse">
<stop stop-color="#64F373"/>
<stop offset="1" stop-color="white" stop-opacity="0.35"/>
</linearGradient>
<linearGradient id="paint38_linear_234_5272" x1="1339.03" y1="-200.087" x2="529.253" y2="836.384" gradientUnits="userSpaceOnUse">
<stop stop-color="#64F373"/>
<stop offset="1" stop-color="white" stop-opacity="0.35"/>
</linearGradient>
<linearGradient id="paint39_linear_234_5272" x1="1341.69" y1="-210.389" x2="519.172" y2="842.386" gradientUnits="userSpaceOnUse">
<stop stop-color="#64F373"/>
<stop offset="1" stop-color="white" stop-opacity="0.35"/>
</linearGradient>
<linearGradient id="paint40_linear_234_5272" x1="1344.37" y1="-220.792" x2="509.061" y2="848.355" gradientUnits="userSpaceOnUse">
<stop stop-color="#64F373"/>
<stop offset="1" stop-color="white" stop-opacity="0.35"/>
</linearGradient>
<linearGradient id="paint41_linear_234_5272" x1="1347.03" y1="-231.193" x2="498.944" y2="854.32" gradientUnits="userSpaceOnUse">
<stop stop-color="#64F373"/>
<stop offset="1" stop-color="white" stop-opacity="0.35"/>
</linearGradient>
<linearGradient id="paint42_linear_234_5272" x1="1349.72" y1="-241.611" x2="488.825" y2="860.287" gradientUnits="userSpaceOnUse">
<stop stop-color="#64F373"/>
<stop offset="1" stop-color="white" stop-opacity="0.35"/>
</linearGradient>
<linearGradient id="paint43_linear_234_5272" x1="1352.37" y1="-251.994" x2="478.702" y2="866.253" gradientUnits="userSpaceOnUse">
<stop stop-color="#64F373"/>
<stop offset="1" stop-color="white" stop-opacity="0.35"/>
</linearGradient>
<linearGradient id="paint44_linear_234_5272" x1="1355.05" y1="-262.392" x2="468.596" y2="872.225" gradientUnits="userSpaceOnUse">
<stop stop-color="#64F373"/>
<stop offset="1" stop-color="white" stop-opacity="0.35"/>
</linearGradient>
<linearGradient id="paint45_linear_234_5272" x1="1363.92" y1="-267.953" x2="464.678" y2="883.034" gradientUnits="userSpaceOnUse">
<stop stop-color="#64F373"/>
<stop offset="1" stop-color="white" stop-opacity="0.35"/>
</linearGradient>
<linearGradient id="paint46_linear_234_5272" x1="1374.33" y1="-272.296" x2="462.302" y2="895.051" gradientUnits="userSpaceOnUse">
<stop stop-color="#64F373"/>
<stop offset="1" stop-color="white" stop-opacity="0.35"/>
</linearGradient>
<linearGradient id="paint47_linear_234_5272" x1="1384.79" y1="-276.608" x2="459.973" y2="907.106" gradientUnits="userSpaceOnUse">
<stop stop-color="#64F373"/>
<stop offset="1" stop-color="white" stop-opacity="0.35"/>
</linearGradient>
<linearGradient id="paint48_linear_234_5272" x1="1395.28" y1="-280.869" x2="457.692" y2="919.196" gradientUnits="userSpaceOnUse">
<stop stop-color="#64F373"/>
<stop offset="1" stop-color="white" stop-opacity="0.35"/>
</linearGradient>
<linearGradient id="paint49_linear_234_5272" x1="1405.8" y1="-285.139" x2="455.423" y2="931.293" gradientUnits="userSpaceOnUse">
<stop stop-color="#64F373"/>
<stop offset="1" stop-color="white" stop-opacity="0.35"/>
</linearGradient>
<linearGradient id="paint50_linear_234_5272" x1="1416.37" y1="-289.372" x2="453.201" y2="943.43" gradientUnits="userSpaceOnUse">
<stop stop-color="#64F373"/>
<stop offset="1" stop-color="white" stop-opacity="0.35"/>
</linearGradient>
<linearGradient id="paint51_linear_234_5272" x1="1426.9" y1="-293.639" x2="450.941" y2="955.539" gradientUnits="userSpaceOnUse">
<stop stop-color="#64F373"/>
<stop offset="1" stop-color="white" stop-opacity="0.35"/>
</linearGradient>
</defs>
</svg>
